<svg xmlns="http://www.w3.org/2000/svg" width="180" height="180" viewBox="0 0 180 180" fill="none"><circle cx="90" cy="90" r="87.5" fill="white" stroke="#D4DD27" stroke-width="5"></circle><circle cx="90" cy="90" r="63.5" fill="#26A9E0" stroke="#D4DD27"></circle><g clip-path="url(#clip0_14_5)"><path d="M79.0131 98.9873C78.6509 98.5836 78.5629 98.0033 78.7874 97.5097C81.7251 91.0517 78.5386 87.4377 78.8561 72.8463C78.8711 72.1536 79.4108 71.4929 80.2755 71.5093C81.0211 71.5235 81.6052 72.1573 81.5889 72.9027C81.5748 73.5513 81.5684 74.2026 81.5693 74.8553C81.5703 75.6118 82.1879 76.2294 82.9444 76.2191C85.1673 76.1887 89.4915 75.4567 91.1651 70.4363L91.9974 67.9395C93.5376 63.3187 90.9062 58.3299 86.1735 57.0273L77.6621 54.6846C74.2711 53.7513 70.5993 55.03 68.5238 57.8663C58.5698 71.4678 51.9611 87.1102 49.1546 103.679C48.3833 108.232 50.5471 112.826 54.5394 115.11C76.9553 127.936 103.535 129.178 127.617 117.958C129.672 117 131 114.914 131 112.644V88.2208C131 86.2731 130.041 84.4602 128.434 83.3712C119.794 77.5156 108.793 78.2169 101.423 85.9919C100.766 86.6848 101.015 87.8209 101.896 88.1892C105.225 89.5812 108.373 91.6037 111 93.9924C111.571 94.5117 111.611 95.4113 111.044 95.9768C110.529 96.49 109.704 96.5093 109.164 96.0221C102.281 89.8058 92.9747 86.9778 83.7167 89.9357C83.1489 90.1171 82.7684 90.6545 82.7778 91.2506C82.8166 93.7298 82.4026 96.1306 81.2712 98.6453C80.8677 99.5417 79.6692 99.7188 79.0131 98.9873Z" fill="white"></path></g><defs><clipPath id="clip0_14_5"><rect width="82" height="82" fill="white" transform="translate(49 49)"></rect></clipPath></defs></svg>