<svg xmlns="http://www.w3.org/2000/svg" width="180" height="180" viewBox="0 0 180 180" fill="none"><circle cx="90" cy="90" r="87.5" fill="white" stroke="#D4DD27" stroke-width="5"></circle><circle cx="90" cy="90" r="63.5" fill="#26A9E0" stroke="#D4DD27"></circle><path d="M79.6781 83.6188C79.6781 81.5844 78.8062 80.4219 76.7719 80.4219C75.6094 80.4219 75.0281 80.7125 74.4469 81.5844C74.1563 81.875 73.8656 82.4562 73.8656 83.0375C73.575 84.2 72.4125 85.0719 70.9594 85.0719H70.0875C68.3438 85.0719 66.8906 83.3281 67.4719 81.5844C68.0531 79.8406 68.925 78.3875 70.0875 77.5156C72.1219 75.7719 74.4469 74.9 77.3531 74.9C80.55 74.9 82.5844 75.7719 84.3281 77.225C86.0719 78.6781 86.6531 80.7125 86.6531 83.3281C86.6531 85.9437 85.4906 88.85 83.4562 91.4656C81.4219 94.0812 78.8063 96.4063 75.9 98.15H84.3281C85.7812 98.15 86.9437 99.3125 86.9437 100.766C86.9437 102.219 85.7812 103.381 84.3281 103.381H69.7969C68.3438 103.381 67.1813 102.219 67.1813 100.766V99.8938C67.1813 99.0219 67.7625 98.15 68.3438 97.5687C75.6094 91.7562 79.6781 87.1063 79.6781 83.6188Z" fill="white"></path><path d="M89.85 95.825V93.5C89.85 92.9187 90.1406 92.3375 90.4313 92.0469L102.056 76.0625C102.638 75.4812 103.219 74.9 104.091 74.9H107.578C109.031 74.9 110.194 76.0625 110.194 77.5156V92.3375H113.681V98.15H110.194V100.766C110.194 102.219 109.031 103.381 107.578 103.381H105.834C104.381 103.381 103.219 102.219 103.219 100.766V98.15H92.4656C91.0125 98.4406 89.85 97.2781 89.85 95.825ZM103.8 83.0375L96.825 92.6281H103.8V83.0375Z" fill="white"></path><path d="M90.1406 131.281C66.8906 131.281 48 112.391 48 89.1406C48 65.8906 66.8906 47 90.1406 47C92.4656 47 94.5 49.0344 94.5 51.3594C94.5 53.6844 92.4656 55.7188 90.1406 55.7188C71.8312 55.7188 56.7188 70.8312 56.7188 89.1406C56.7188 107.45 71.8312 122.562 90.1406 122.562C108.45 122.562 123.562 107.45 123.562 89.1406C123.562 76.6437 116.587 65.3094 105.834 59.4969C103.8 58.3344 102.928 55.7187 104.091 53.6844C105.253 51.65 107.869 50.7781 109.903 51.9406C123.853 59.2063 132.281 73.4469 132.281 89.1406C132.281 112.391 113.391 131.281 90.1406 131.281Z" fill="white"></path><path d="M108.159 68.2156C105.834 68.2156 104.091 66.4719 103.8 64.1469L102.928 52.8125C102.928 51.65 103.219 50.1969 104.381 49.325C105.544 48.4531 106.706 47.8719 107.869 48.1625L119.203 49.6156C121.528 49.9063 123.272 51.9406 122.981 54.5562C122.691 56.8812 120.656 58.625 118.041 58.3344L111.938 57.7531L112.519 63.8563C112.809 66.1813 110.775 68.2156 108.45 68.5062C108.45 68.2156 108.45 68.2156 108.159 68.2156Z" fill="white"></path></svg>