<svg xmlns="http://www.w3.org/2000/svg" width="180" height="180" viewBox="0 0 180 180" fill="none"><circle cx="90" cy="90" r="87.5" fill="white" stroke="#D4DD27" stroke-width="5"></circle><circle cx="90" cy="90" r="63.5" fill="#26A9E0" stroke="#D4DD27"></circle><path d="M129.089 67.4898C127.874 66.2751 125.907 66.2766 124.694 67.4898C123.967 68.2166 123.079 68.7317 121.924 69.1149L109.873 57.0637C110.257 55.9088 110.78 55.0348 111.51 54.3051C112.723 53.092 112.724 51.1254 111.51 49.9107C110.295 48.696 108.328 48.6968 107.114 49.9107C103.887 53.1382 102.946 57.1373 102.766 64.562C102.746 65.3989 103.064 66.2085 103.649 66.8076C104.233 67.407 105.035 67.7469 105.873 67.7469H106.16C107.706 67.7469 108.962 66.4996 108.974 64.9541L114.033 70.0132C112.543 70.0413 110.908 70.0487 108.964 70.0314L102.74 69.9464C95.0441 69.825 83.5876 69.0906 76.3315 76.3461C71.554 81.1245 70.1542 88.2448 69.8636 95.6215C69.831 96.4585 70.1406 97.2725 70.7201 97.8765C71.3005 98.4798 72.1019 98.8234 72.9394 98.8234H73.007C74.6676 98.8234 76.0258 97.5069 76.0812 95.847C76.129 94.4199 76.2214 93.0276 76.3741 91.684C78.9429 94.2528 84.1659 99.4765 87.3228 102.633C83.5581 103.036 79.6122 102.891 76.1616 102.839L69.9448 102.752C57.59 102.627 53.9264 103.099 49.9105 107.115C48.6966 108.329 48.6951 110.295 49.9105 111.51C51.1244 112.725 53.0918 112.724 54.3049 111.51C55.104 110.711 55.9216 110.152 57.0946 109.761L69.1374 121.803C68.7445 122.966 68.2232 123.961 67.4896 124.695C66.2757 125.908 66.2749 127.875 67.4896 129.09C68.7043 130.304 70.6708 130.303 71.884 129.09C75.2041 125.77 76.1441 120.433 76.3088 114.417C76.3315 113.586 76.0175 112.782 75.4385 112.187C74.8595 111.591 74.0638 111.253 73.233 111.253H72.8825C71.365 111.253 70.1307 112.474 70.1147 113.992L65.0847 108.962C66.5124 108.946 68.1362 108.95 70.0299 108.97L76.2482 109.055C83.9763 109.173 95.4174 109.904 102.654 102.668C107.726 97.5951 108.963 88.8366 109.11 81.6706C109.147 79.9263 107.751 78.4865 106.006 78.4865C104.325 78.4865 102.937 79.8263 102.913 81.5075C102.894 82.8063 102.83 85.7084 102.667 87.2137C99.4346 83.9815 95.6322 80.1784 91.8091 76.3552C95.5417 75.9683 99.4363 76.1101 102.83 76.1633L109.05 76.25C119.919 76.3502 125.111 75.8631 129.09 71.8851C130.302 70.6708 130.303 68.7043 129.089 67.4898ZM100.92 94.2573C100.22 95.8377 99.3476 97.1843 98.2574 98.2739C97.133 99.3983 95.7878 100.21 94.341 100.863L78.127 84.6477C78.784 83.1751 79.6192 81.8482 80.7255 80.7418C81.8812 79.5862 83.2648 78.7526 84.7557 78.0924C90.1591 83.4952 96.3864 89.7235 100.92 94.2573Z" fill="white"></path></svg>