<svg xmlns="http://www.w3.org/2000/svg" width="180" height="180" viewBox="0 0 180 180" fill="none"><circle cx="90" cy="90" r="87.5" fill="white" stroke="#D4DD27" stroke-width="5"></circle><circle cx="90" cy="90" r="63.5" fill="#26A9E0" stroke="#D4DD27"></circle><path d="M110.595 63.1153C107.33 60.9624 104.311 59.8415 102.048 59.2567C99.9157 63.7739 95.3187 66.9078 90.0008 66.9078C84.683 66.9078 80.0852 63.7735 77.9539 59.256C75.6908 59.8404 72.6706 60.9613 69.4061 63.1146C62.8716 67.399 55.656 75.8518 51.8981 91.2637C51.3763 93.3864 52.6736 95.5304 54.7967 96.0536C55.114 96.1317 55.4318 96.1687 55.7445 96.1687C56.4779 96.1687 57.1821 95.9611 57.7899 95.5933C58.5772 87.6407 61.9796 80.1483 66.9346 74.3188C62.0627 80.8349 58.9935 89.1769 58.9935 97.8474C58.9935 116.893 73.7998 124.856 90.0016 124.856C106.203 124.856 121.01 116.893 121.01 97.8474C121.01 89.1773 117.94 80.8356 113.068 74.3188C118.024 80.1483 121.426 87.6414 122.213 95.5941C122.82 95.9611 123.524 96.1687 124.257 96.1687C124.57 96.1687 124.887 96.1317 125.205 96.0536C127.327 95.5314 128.625 93.3875 128.104 91.2637C124.344 75.8518 117.129 67.399 110.595 63.1153Z" fill="white"></path><path d="M73.3291 132.819C73.3291 136.232 76.7484 139 80.9647 139C85.1825 139 88.6018 136.232 88.6018 132.819V126.096C82.2933 125.93 76.245 124.633 71.1924 122.041L73.3291 132.819Z" fill="white"></path><path d="M91.4003 132.819C91.4003 136.232 94.821 139 99.038 139C103.254 139 106.674 136.232 106.674 132.819L108.811 122.041C103.758 124.633 97.7091 125.931 91.4006 126.096L91.4003 132.819Z" fill="white"></path><path d="M90.0008 66.1888C96.9567 66.1888 102.595 60.55 102.595 53.5942C102.595 46.6383 96.9567 40.9995 90.0008 40.9995C83.045 40.9995 77.4062 46.6383 77.4062 53.5942C77.4062 60.55 83.045 66.1888 90.0008 66.1888Z" fill="white"></path></svg>