<svg xmlns="http://www.w3.org/2000/svg" width="180" height="180" viewBox="0 0 180 180" fill="none"><circle cx="90" cy="90" r="87.5" fill="white" stroke="#D4DD27" stroke-width="5"></circle><circle cx="90" cy="90" r="63.5" fill="#26A9E0" stroke="#D4DD27"></circle><path d="M116.915 78.1949C116.651 77.8638 116.33 77.9289 116.163 77.9964C116.022 78.0535 115.7 78.2357 115.744 78.6924C115.798 79.2408 115.828 79.7999 115.833 80.3544C115.857 82.6547 114.935 84.9083 113.302 86.5374C111.68 88.1559 109.546 89.0279 107.274 89.0027C104.17 88.963 101.596 87.3443 99.8298 84.3214C98.3692 81.8219 99.0112 78.598 99.6909 75.1847C100.089 73.1868 100.5 71.1207 100.5 69.1544C100.5 53.844 90.2073 45.011 84.0719 41.1084C83.945 41.0278 83.8243 40.9995 83.7173 40.9995C83.5433 40.9995 83.4055 41.0745 83.3375 41.1205C83.2058 41.2097 82.9951 41.4129 83.0628 41.7728C85.4079 54.2261 78.4132 61.716 71.0077 69.6456C63.3744 77.8192 54.7227 87.0834 54.7227 103.792C54.7227 123.206 70.5169 139 89.9309 139C105.916 139 120.009 127.855 124.203 111.899C127.063 101.019 124.066 87.1592 116.915 78.1949ZM90.8092 131.485C85.9479 131.706 81.3247 129.963 77.7934 126.586C74.3001 123.246 72.2964 118.584 72.2964 113.796C72.2964 104.812 75.7318 98.2158 84.9717 89.4594C85.1229 89.316 85.2778 89.2706 85.4127 89.2706C85.535 89.2706 85.6411 89.308 85.714 89.343C85.8677 89.4171 86.1204 89.6004 86.0863 89.997C85.7559 93.8414 85.7617 97.0324 86.1031 99.4816C86.9759 105.738 91.5557 109.941 97.4998 109.941C100.414 109.941 103.19 108.844 105.316 106.853C105.563 106.622 105.839 106.651 105.944 106.673C106.084 106.704 106.272 106.789 106.37 107.026C107.252 109.155 107.702 111.414 107.709 113.742C107.737 123.106 100.156 131.066 90.8092 131.485Z" fill="white"></path></svg>