<svg xmlns="http://www.w3.org/2000/svg" xmlns:xlink="http://www.w3.org/1999/xlink" id="Camada_2" data-name="Camada 2" viewBox="0 0 669.12 125.45"><defs><style>      .cls-1 {        fill: url(#Gradiente_sem_nome_46-2);      }      .cls-1, .cls-2, .cls-3, .cls-4, .cls-5, .cls-6 {        stroke-width: 0px;      }      .cls-2 {        fill: url(#Gradiente_sem_nome_46-4);      }      .cls-3 {        fill: url(#Gradiente_sem_nome_46-5);      }      .cls-4 {        fill: url(#Gradiente_sem_nome_46-3);      }      .cls-5 {        fill: url(#Gradiente_sem_nome_46);      }      .cls-6 {        fill: #d4dd24;      }    </style><linearGradient id="Gradiente_sem_nome_46" data-name="Gradiente sem nome 46" x1="239.46" y1="125.45" x2="239.46" y2="29.58" gradientUnits="userSpaceOnUse"><stop offset="0" stop-color="#6ccef5"></stop><stop offset=".22" stop-color="#54c1ee"></stop><stop offset=".52" stop-color="#3ab4e6"></stop><stop offset=".79" stop-color="#2aabe1"></stop><stop offset="1" stop-color="#25a9e0"></stop></linearGradient><linearGradient id="Gradiente_sem_nome_46-2" data-name="Gradiente sem nome 46" x1="403.91" y1="125.45" x2="403.91" y2="29.58" xlink:href="#Gradiente_sem_nome_46"></linearGradient><linearGradient id="Gradiente_sem_nome_46-3" data-name="Gradiente sem nome 46" x1="537.72" y1="125.45" x2="537.72" y2="29.58" xlink:href="#Gradiente_sem_nome_46"></linearGradient><linearGradient id="Gradiente_sem_nome_46-4" data-name="Gradiente sem nome 46" x1="603.42" y1="125.45" x2="603.42" y2="29.58" xlink:href="#Gradiente_sem_nome_46"></linearGradient><linearGradient id="Gradiente_sem_nome_46-5" data-name="Gradiente sem nome 46" x1="64.01" y1="125.45" x2="64.01" y2="29.58" xlink:href="#Gradiente_sem_nome_46"></linearGradient></defs><g id="Camada_1-2" data-name="Camada 1"><g><path class="cls-5" d="M313.24,29.58c-8.04,0-15.1,2.7-20.99,8.04l-.04.04-72.86,72.87h-48.46c-3.54,0-6.5-1.24-9.04-3.79-2.55-2.55-3.79-5.51-3.79-9.04V29.58s-14.93,0-14.93,0v68.11c0,7.65,2.73,14.26,8.12,19.65,5.39,5.39,12,8.12,19.65,8.12h33.52s21.21,0,21.21,0h1.22v-1.22s75.56-75.56,75.56-75.56c3.12-2.8,6.67-4.16,10.85-4.16h7.63s0,80.94,0,80.94h14.93s0-95.87,0-95.87h-22.56Z"></path><polygon class="cls-1" points="403.84 66.97 366.58 29.58 345.36 29.58 396.37 80.59 396.37 125.45 411.31 125.45 411.31 80.59 462.46 29.58 441.24 29.58 403.84 66.97"></polygon><path class="cls-4" d="M582.21,29.58l-76.78,76.78c-3.12,2.8-6.67,4.16-10.85,4.16h-7.63s0-80.94,0-80.94h-14.93s0,95.87,0,95.87h22.56c8.04,0,15.1-2.7,20.99-8.04l.04-.04,87.8-87.8h-21.21Z"></path><path class="cls-2" d="M646.56,29.58c-8.04,0-15.1,2.7-20.99,8.04l-.04.04-87.8,87.8h21.21s76.78-76.78,76.78-76.78c3.12-2.8,6.67-4.16,10.85-4.16h7.63s0,80.94,0,80.94h14.93s0-95.87,0-95.87h-22.56Z"></path><rect class="cls-6" x="320.87" y="0" width="14.88" height="14.88" rx="7.44" ry="7.44"></rect><rect class="cls-6" x="298.44" y="0" width="14.88" height="14.88" rx="7.44" ry="7.44"></rect><path class="cls-3" d="M125.03,85.16c-.95-1.89-2.13-3.67-3.51-5.3-.7-.82-1.44-1.6-2.22-2.33,2.36-2.21,4.3-4.82,5.79-7.8,1.94-3.88,2.92-8.05,2.92-12.39,0-5-1.25-9.69-3.7-13.95-2.46-4.25-5.86-7.65-10.11-10.11-4.26-2.46-8.9-3.7-13.82-3.7H0s0,14.93,0,14.93v25.54s0,21.22,0,21.22v34.19s100.38,0,100.38,0c4.92,0,9.57-1.25,13.82-3.7,4.25-2.45,7.65-5.86,10.11-10.11,2.46-4.25,3.7-8.95,3.7-13.95,0-2.17-.26-4.36-.78-6.49-.52-2.11-1.26-4.14-2.2-6.03ZM109.36,106.79c-2.51,2.51-5.44,3.72-8.98,3.72H14.93s0-19.25,0-19.25v-6.28s85.44,0,85.44,0c3.53,0,6.47,1.22,8.98,3.72,2.51,2.51,3.72,5.47,3.72,9.04,0,3.58-1.22,6.54-3.72,9.05ZM109.36,66.32c-2.51,2.51-5.44,3.72-8.98,3.72H14.93s0-25.54,0-25.54h85.44c3.53,0,6.47,1.22,8.98,3.72,2.51,2.51,3.72,5.47,3.72,9.04,0,3.58-1.22,6.54-3.72,9.04Z"></path></g></g></svg>