<svg xmlns="http://www.w3.org/2000/svg" width="180" height="180" viewBox="0 0 180 180" fill="none"><circle cx="90" cy="90" r="87.5" fill="white" stroke="#D4DD27" stroke-width="5"></circle><circle cx="90" cy="90" r="63.5" fill="#26A9E0" stroke="#D4DD27"></circle><g clip-path="url(#clip0_22_33)"><path fill-rule="evenodd" clip-rule="evenodd" d="M119.992 61.0087C112.303 53.3197 101.874 49 91.0003 49C80.1263 49 69.6978 53.3196 62.0087 61.0086C54.3197 68.6977 50 79.1262 50 90.0002C50 100.874 54.3196 111.303 62.0086 118.992C69.6977 126.681 80.1262 131 91.0002 131C96.3844 131 101.716 129.94 106.69 127.879C111.665 125.819 116.184 122.799 119.992 118.992C123.799 115.185 126.819 110.665 128.879 105.69C130.94 100.716 132 95.3845 132 90.0003C132 84.616 130.94 79.2845 128.879 74.3102C126.819 69.3358 123.799 64.8159 119.992 61.0087ZM98.5499 81.3133V79.51C98.5499 75.7351 102.07 72.6649 106.398 72.6649C110.725 72.6649 114.245 75.7351 114.245 79.51V81.3133C114.245 81.9929 113.975 82.6447 113.495 83.1253C113.014 83.6059 112.362 83.8758 111.683 83.8758C111.003 83.8758 110.351 83.6059 109.871 83.1253C109.39 82.6447 109.12 81.9929 109.12 81.3133V79.51C109.12 78.698 107.956 77.7899 106.398 77.7899C104.839 77.7899 103.675 78.698 103.675 79.51V81.3133C103.675 81.9929 103.405 82.6447 102.924 83.1253C102.444 83.6059 101.792 83.8758 101.112 83.8758C100.433 83.8758 99.781 83.6059 99.3004 83.1253C98.8199 82.6447 98.5499 81.9929 98.5499 81.3133ZM67.755 81.3133V79.51C67.755 75.7351 71.2753 72.6649 75.6027 72.6649C79.9301 72.6649 83.4504 75.7351 83.4504 79.51V81.3133C83.4504 81.9929 83.1804 82.6447 82.6998 83.1253C82.2193 83.6059 81.5675 83.8758 80.8879 83.8758C80.2082 83.8758 79.5565 83.6059 79.0759 83.1253C78.5953 82.6447 78.3254 81.9929 78.3254 81.3133V79.51C78.3254 78.698 77.161 77.7899 75.6027 77.7899C74.0444 77.7899 72.88 78.698 72.88 79.51V81.3133C72.88 81.9929 72.6101 82.6447 72.1295 83.1253C71.6489 83.6059 70.9972 83.8758 70.3175 83.8758C69.6379 83.8758 68.9862 83.6059 68.5056 83.1253C68.025 82.6447 67.755 81.9929 67.755 81.3133ZM114.013 97.3594C114.293 97.5462 114.533 97.7863 114.72 98.066C114.907 98.3458 115.038 98.6596 115.103 98.9896C115.169 99.3197 115.169 99.6594 115.103 99.9895C115.038 100.32 114.908 100.633 114.721 100.913C112.118 104.819 108.59 108.021 104.452 110.235C100.314 112.45 95.6936 113.609 91.0001 113.609C86.3067 113.609 81.6859 112.45 77.5478 110.235C73.4098 108.021 69.8826 104.819 67.2794 100.913C67.0879 100.634 66.9538 100.319 66.8849 99.9867C66.816 99.6548 66.8136 99.3125 66.878 98.9796C66.9423 98.6468 67.072 98.33 67.2596 98.0477C67.4472 97.7654 67.6889 97.523 67.9708 97.3348C68.2528 97.1465 68.5692 97.0161 68.9019 96.951C69.2346 96.8859 69.5769 96.8875 69.9089 96.9556C70.241 97.0237 70.5563 97.1571 70.8364 97.3479C71.1166 97.5387 71.3561 97.7832 71.5411 98.0673C73.5872 101.14 76.3324 103.684 79.5517 105.491C82.771 107.298 86.3727 108.317 90.0616 108.463L89.4754 107.446C87.9459 104.797 87.5313 101.649 88.3229 98.6941C89.1145 95.7394 91.0474 93.2201 93.6964 91.6906C96.3455 90.161 99.4936 89.7464 102.448 90.538C105.403 91.3296 107.922 93.2625 109.452 95.9116L110.592 97.8879C110.993 97.3878 111.566 97.0562 112.2 96.9583C112.833 96.8605 113.48 97.0036 114.013 97.3594ZM96.2581 96.1294C97.7304 95.2817 99.4788 95.0525 101.12 95.492C102.761 95.9316 104.161 97.004 105.012 98.4741L107.088 102.068C103.926 105.07 99.9862 107.127 95.7151 108.003L93.9135 104.884C93.0658 103.411 92.8365 101.663 93.276 100.022C93.7156 98.3807 94.7879 96.9809 96.2581 96.1294Z" fill="white"></path></g><defs><clipPath id="clip0_22_33"><rect width="82" height="82" fill="white" transform="translate(50 49)"></rect></clipPath></defs></svg>