<svg xmlns="http://www.w3.org/2000/svg" width="285" height="36" viewBox="0 0 285 36" fill="none"><g opacity="0.8"><path d="M169.342 20.8331V7.27734H172.686V17.9801H178.013V20.8327L169.342 20.8331Z" fill="white"></path><path d="M189.033 16.1797C189.033 16.3074 189.033 16.4352 189.033 16.5629C189.033 16.6907 189.026 16.8116 189.014 16.9268H181.995C182.021 17.1948 182.102 17.4374 182.238 17.6545C182.375 17.8716 182.55 18.0594 182.763 18.2195C182.977 18.3792 183.217 18.5035 183.483 18.5924C183.748 18.6822 184.024 18.7266 184.309 18.7266C184.814 18.7266 185.243 18.6343 185.592 18.4491C185.943 18.2639 186.227 18.0248 186.448 17.7309L188.664 19.1095C188.211 19.7603 187.612 20.2615 186.866 20.6124C186.121 20.9628 185.255 21.1389 184.27 21.1389C183.544 21.1389 182.857 21.0267 182.21 20.804C181.561 20.5804 180.995 20.2554 180.508 19.8273C180.022 19.3999 179.64 18.8734 179.361 18.248C179.082 17.6226 178.943 16.9078 178.943 16.1033C178.943 15.3251 179.079 14.6194 179.351 13.9879C179.624 13.3565 179.993 12.82 180.46 12.3797C180.926 11.939 181.477 11.5976 182.113 11.3551C182.747 11.1129 183.435 10.9912 184.173 10.9912C184.886 10.9912 185.541 11.1095 186.137 11.3456C186.733 11.5817 187.245 11.9231 187.673 12.3698C188.101 12.8165 188.434 13.3591 188.674 13.9974C188.913 14.6353 189.033 15.3635 189.033 16.1797ZM186.097 14.9733C186.097 14.4756 185.939 14.0479 185.621 13.6905C185.303 13.3336 184.827 13.1545 184.192 13.1545C183.881 13.1545 183.596 13.2024 183.336 13.2982C183.077 13.394 182.851 13.5248 182.656 13.6905C182.462 13.8567 182.306 14.0514 182.189 14.2749C182.073 14.4985 182.008 14.7316 181.995 14.9733H186.097Z" fill="white"></path><path d="M194.126 13.6341V17.286C194.126 17.7344 194.214 18.0702 194.389 18.2951C194.564 18.5195 194.878 18.6309 195.332 18.6309C195.487 18.6309 195.652 18.6188 195.828 18.5925C196.002 18.567 196.148 18.529 196.265 18.4777L196.304 20.7751C196.084 20.8515 195.805 20.9184 195.468 20.9763C195.131 21.0337 194.794 21.0622 194.457 21.0622C193.809 21.0622 193.264 20.9819 192.823 20.8222C192.383 20.6625 192.029 20.432 191.764 20.1307C191.498 19.8303 191.307 19.4721 191.19 19.056C191.073 18.6404 191.015 18.1764 191.015 17.6645V13.6341H189.46V11.2982H190.996V8.79004H194.126V11.2982H196.401V13.6341H194.126Z" fill="white"></path><path d="M206.725 14.1121C206.465 13.87 206.161 13.6658 205.811 13.4996C205.461 13.3339 205.092 13.2506 204.703 13.2506C204.404 13.2506 204.129 13.3084 203.877 13.4228C203.624 13.5381 203.497 13.7362 203.497 14.0163C203.497 14.2843 203.636 14.4755 203.915 14.5908C204.194 14.706 204.644 14.8333 205.266 14.9736C205.629 15.0504 205.996 15.1592 206.365 15.2995C206.735 15.4398 207.068 15.6249 207.366 15.8545C207.664 16.0842 207.904 16.3651 208.086 16.6971C208.267 17.029 208.358 17.4248 208.358 17.884C208.358 18.4844 208.235 18.9911 207.989 19.4059C207.742 19.8207 207.422 20.1556 207.026 20.4111C206.631 20.6666 206.187 20.8514 205.695 20.9662C205.202 21.0814 204.709 21.1384 204.217 21.1384C203.426 21.1384 202.652 21.0141 201.893 20.765C201.135 20.5164 200.503 20.1491 199.998 19.664L201.787 17.8067C202.071 18.1132 202.421 18.3687 202.836 18.5724C203.251 18.777 203.692 18.8789 204.159 18.8789C204.418 18.8789 204.674 18.818 204.927 18.6967C205.18 18.5759 205.306 18.3618 205.306 18.0558C205.306 17.7619 205.151 17.5452 204.84 17.4045C204.528 17.2642 204.043 17.1175 203.381 16.9638C203.044 16.8874 202.707 16.7855 202.37 16.6578C202.033 16.53 201.732 16.3582 201.466 16.1407C201.201 15.924 200.983 15.656 200.815 15.3366C200.647 15.0181 200.563 14.6348 200.563 14.1881C200.563 13.6136 200.685 13.1254 200.932 12.7232C201.178 12.3209 201.496 11.9929 201.885 11.7374C202.274 11.4818 202.705 11.2941 203.177 11.1724C203.65 11.0507 204.12 10.9902 204.587 10.9902C205.313 10.9902 206.022 11.1025 206.716 11.3252C207.409 11.5487 207.996 11.8837 208.476 12.3304L206.725 14.1121Z" fill="white"></path><path d="M214.464 20.8331V7.27734H223.718V10.0345H217.672V12.6H223.388V15.223H217.672V18.0375H224.068V20.8331H214.464Z" fill="white"></path><path d="M232.481 20.8341V15.6262C232.481 15.3582 232.457 15.1031 232.413 14.8605C232.367 14.618 232.293 14.4043 232.189 14.2192C232.085 14.0344 231.939 13.8873 231.751 13.7785C231.563 13.6706 231.327 13.6158 231.042 13.6158C230.757 13.6158 230.507 13.6706 230.293 13.7785C230.08 13.8873 229.901 14.0375 229.758 14.2287C229.616 14.4199 229.509 14.6404 229.438 14.889C229.366 15.1381 229.331 15.3966 229.331 15.6646V20.8341H226.123V11.2993H229.214V12.6205H229.253C229.37 12.4163 229.522 12.2156 229.711 12.0179C229.898 11.8198 230.119 11.6506 230.371 11.5103C230.624 11.3701 230.9 11.2548 231.198 11.1655C231.496 11.0766 231.813 11.0312 232.151 11.0312C232.799 11.0312 233.349 11.1465 233.803 11.3761C234.257 11.6057 234.623 11.9027 234.902 12.2661C235.181 12.63 235.382 13.0482 235.505 13.5199C235.628 13.9926 235.689 14.4648 235.689 14.9369V20.8337L232.481 20.8341Z" fill="white"></path><path d="M243.893 14.3798C243.711 14.1502 243.465 13.9655 243.154 13.8248C242.843 13.6845 242.524 13.6141 242.201 13.6141C241.863 13.6141 241.559 13.681 241.287 13.8153C241.015 13.9495 240.782 14.1286 240.587 14.3513C240.393 14.5749 240.24 14.8335 240.13 15.127C240.02 15.4209 239.965 15.7329 239.965 16.0653C239.965 16.3972 240.016 16.7097 240.12 17.0032C240.224 17.2971 240.376 17.5557 240.577 17.7788C240.778 18.0024 241.017 18.178 241.297 18.3054C241.575 18.4331 241.89 18.4966 242.239 18.4966C242.563 18.4966 242.884 18.4362 243.202 18.3149C243.519 18.1936 243.775 18.0179 243.969 17.7883L245.739 19.9136C245.337 20.2964 244.818 20.5964 244.183 20.8135C243.548 21.0302 242.874 21.1389 242.161 21.1389C241.397 21.1389 240.683 21.0237 240.019 20.7941C239.357 20.5645 238.781 20.2291 238.292 19.7888C237.803 19.3486 237.419 18.816 237.138 18.1906C236.858 17.5652 236.718 16.8569 236.718 16.0653C236.718 15.2867 236.858 14.5844 237.138 13.959C237.419 13.334 237.803 12.8005 238.292 12.3603C238.781 11.9196 239.357 11.5817 240.019 11.3456C240.683 11.1095 241.39 10.9912 242.142 10.9912C242.492 10.9912 242.839 11.0232 243.182 11.0875C243.525 11.1509 243.856 11.2377 244.174 11.346C244.491 11.4543 244.783 11.5886 245.049 11.7483C245.314 11.908 245.545 12.0832 245.739 12.2748L243.893 14.3798Z" fill="white"></path><path d="M253.237 13.8833C253.094 13.8448 252.955 13.8198 252.819 13.8069C252.683 13.7939 252.55 13.7874 252.42 13.7874C251.993 13.7874 251.633 13.8643 251.341 14.0166C251.05 14.1694 250.817 14.3537 250.641 14.5704C250.466 14.7866 250.34 15.0223 250.262 15.2769C250.185 15.5316 250.146 15.7539 250.146 15.9451V20.8331H246.957V11.31H250.029V12.6885H250.068C250.314 12.2 250.664 11.8016 251.118 11.493C251.571 11.1844 252.097 11.0303 252.693 11.0303C252.822 11.0303 252.949 11.0372 253.072 11.0497C253.195 11.0622 253.296 11.0816 253.374 11.1071L253.237 13.8833Z" fill="white"></path><path d="M260.728 22.2692C260.533 22.7669 260.316 23.2106 260.076 23.5999C259.837 23.9888 259.552 24.3207 259.221 24.5956C258.891 24.8701 258.501 25.0769 258.054 25.2176C257.607 25.3578 257.079 25.4282 256.47 25.4282C256.171 25.4282 255.864 25.4088 255.547 25.3704C255.229 25.332 254.953 25.281 254.72 25.2176L255.07 22.5757C255.226 22.6262 255.397 22.668 255.586 22.7C255.773 22.7315 255.945 22.7474 256.101 22.7474C256.594 22.7474 256.95 22.6356 257.17 22.4125C257.39 22.1889 257.578 21.8734 257.734 21.4651L258.045 20.6804L254.001 11.2988H257.539L259.698 17.4256H259.756L261.681 11.2988H265.064L260.728 22.2692Z" fill="white"></path><path d="M276.671 16.0285C276.671 16.6923 276.567 17.3307 276.359 17.9431C276.152 18.556 275.851 19.0951 275.456 19.5608C275.06 20.027 274.577 20.4003 274.007 20.6813C273.436 20.9614 272.789 21.1026 272.062 21.1026C271.466 21.1026 270.903 20.9847 270.371 20.7486C269.839 20.5126 269.425 20.1901 269.127 19.7818H269.088V25.43H265.899V11.2993H268.932V12.4672H268.991C269.289 12.0844 269.7 11.7495 270.225 11.462C270.75 11.175 271.369 11.0312 272.082 11.0312C272.782 11.0312 273.417 11.1655 273.987 11.4335C274.558 11.7015 275.04 12.0654 275.436 12.5246C275.832 12.9839 276.136 13.5174 276.35 14.1233C276.564 14.7298 276.671 15.3651 276.671 16.0285ZM273.579 16.0285C273.579 15.7221 273.531 15.4225 273.434 15.1286C273.336 14.8351 273.194 14.5765 273.006 14.353C272.818 14.1298 272.581 13.9481 272.296 13.8074C272.011 13.6667 271.681 13.5968 271.305 13.5968C270.942 13.5968 270.617 13.6671 270.332 13.8074C270.047 13.9477 269.804 14.1328 269.603 14.3625C269.402 14.5921 269.247 14.8541 269.137 15.1471C269.026 15.4411 268.971 15.7406 268.971 16.0471C268.971 16.3535 269.026 16.6535 269.137 16.947C269.247 17.2409 269.402 17.502 269.603 17.7317C269.804 17.9613 270.047 18.1469 270.332 18.2871C270.617 18.4274 270.942 18.4973 271.305 18.4973C271.68 18.4973 272.011 18.4274 272.296 18.2871C272.581 18.1469 272.818 17.9613 273.006 17.7317C273.194 17.502 273.336 17.237 273.434 16.937C273.531 16.6379 273.579 16.3349 273.579 16.0285Z" fill="white"></path><path d="M281.765 13.6341V17.286C281.765 17.7344 281.852 18.0702 282.028 18.2951C282.202 18.5195 282.516 18.6309 282.971 18.6309C283.126 18.6309 283.291 18.6188 283.466 18.5925C283.641 18.567 283.787 18.529 283.904 18.4777L283.943 20.7751C283.722 20.8515 283.443 20.9184 283.107 20.9763C282.769 21.0337 282.433 21.0622 282.096 21.0622C281.447 21.0622 280.903 20.9819 280.462 20.8222C280.021 20.6625 279.668 20.432 279.403 20.1307C279.137 19.8303 278.946 19.4721 278.829 19.056C278.712 18.6404 278.654 18.1764 278.654 17.6645V13.6341H277.099V11.2982H278.634V8.79004H281.765V11.2982H284.04V13.6341H281.765Z" fill="white"></path><path d="M199.317 7.01758C198.36 7.01758 197.611 7.69651 197.611 8.56363C197.611 9.47693 198.242 10.0903 199.181 10.0903C199.262 10.0903 199.337 10.0829 199.409 10.0687C199.258 10.7446 198.597 11.2297 197.972 11.3268L197.845 11.3467V12.8043L198.01 12.7887C198.768 12.7175 199.517 12.3782 200.066 11.8577C200.781 11.1788 201.159 10.1986 201.159 9.02286C201.159 7.86096 200.384 7.01758 199.317 7.01758Z" fill="white"></path><path d="M174.428 27.1783C174.387 26.8335 174.221 26.5658 173.931 26.3752C173.64 26.1846 173.284 26.0894 172.862 26.0894C172.554 26.0894 172.284 26.1393 172.052 26.2391C171.823 26.3389 171.644 26.4762 171.515 26.6509C171.388 26.8255 171.324 27.024 171.324 27.2464C171.324 27.4324 171.368 27.5923 171.457 27.7262C171.548 27.8578 171.663 27.9678 171.804 28.0563C171.945 28.1425 172.092 28.2139 172.246 28.2707C172.401 28.3251 172.542 28.3694 172.672 28.4034L173.38 28.5939C173.561 28.6416 173.763 28.7074 173.985 28.7913C174.21 28.8753 174.424 28.9898 174.628 29.135C174.835 29.2779 175.005 29.4617 175.139 29.6863C175.273 29.9109 175.34 30.1865 175.34 30.5132C175.34 30.8898 175.241 31.2301 175.044 31.5341C174.849 31.8381 174.563 32.0797 174.186 32.2589C173.812 32.4382 173.357 32.5278 172.821 32.5278C172.322 32.5278 171.89 32.4472 171.525 32.2862C171.162 32.1251 170.876 31.9005 170.667 31.6124C170.461 31.3243 170.344 30.9896 170.317 30.6085H171.188C171.211 30.8717 171.299 31.0895 171.453 31.2619C171.61 31.432 171.807 31.5591 172.046 31.643C172.286 31.7247 172.545 31.7655 172.821 31.7655C173.144 31.7655 173.433 31.7133 173.689 31.609C173.946 31.5024 174.149 31.3549 174.298 31.1666C174.448 30.976 174.523 30.7537 174.523 30.4996C174.523 30.2682 174.458 30.0799 174.329 29.9347C174.2 29.7895 174.03 29.6716 173.819 29.5808C173.608 29.4901 173.38 29.4107 173.135 29.3426L172.277 29.0976C171.733 28.9411 171.301 28.7176 170.984 28.4272C170.666 28.1368 170.507 27.7568 170.507 27.2872C170.507 26.897 170.613 26.5567 170.824 26.2663C171.037 25.9737 171.323 25.7468 171.681 25.5857C172.042 25.4224 172.445 25.3407 172.89 25.3407C173.339 25.3407 173.738 25.4212 174.087 25.5823C174.437 25.7411 174.714 25.9589 174.918 26.2357C175.124 26.5125 175.233 26.8267 175.244 27.1783H174.428ZM177.571 25.436V32.4053H176.727V25.436H177.571ZM178.882 26.1846V25.436H184.109V26.1846H181.918V32.4053H181.074V26.1846H178.882ZM185.412 32.4053V25.436H189.618V26.1846H186.256V28.5395H189.4V29.2882H186.256V31.6566H189.672V32.4053H185.412ZM197.645 27.1783C197.604 26.8335 197.439 26.5658 197.148 26.3752C196.858 26.1846 196.502 26.0894 196.08 26.0894C195.771 26.0894 195.501 26.1393 195.27 26.2391C195.041 26.3389 194.862 26.4762 194.732 26.6509C194.605 26.8255 194.542 27.024 194.542 27.2464C194.542 27.4324 194.586 27.5923 194.674 27.7262C194.765 27.8578 194.881 27.9678 195.022 28.0563C195.162 28.1425 195.31 28.2139 195.464 28.2707C195.618 28.3251 195.76 28.3694 195.889 28.4034L196.597 28.5939C196.779 28.6416 196.981 28.7074 197.203 28.7913C197.428 28.8753 197.642 28.9898 197.846 29.135C198.053 29.2779 198.223 29.4617 198.357 29.6863C198.49 29.9109 198.557 30.1865 198.557 30.5132C198.557 30.8898 198.459 31.2301 198.261 31.5341C198.066 31.8381 197.78 32.0797 197.404 32.2589C197.029 32.4382 196.574 32.5278 196.039 32.5278C195.54 32.5278 195.108 32.4472 194.743 32.2862C194.38 32.1251 194.094 31.9005 193.885 31.6124C193.679 31.3243 193.562 30.9896 193.535 30.6085H194.406C194.428 30.8717 194.517 31.0895 194.671 31.2619C194.828 31.432 195.025 31.5591 195.263 31.643C195.504 31.7247 195.762 31.7655 196.039 31.7655C196.361 31.7655 196.65 31.7133 196.907 31.609C197.163 31.5024 197.366 31.3549 197.516 31.1666C197.666 30.976 197.741 30.7537 197.741 30.4996C197.741 30.2682 197.676 30.0799 197.547 29.9347C197.417 29.7895 197.247 29.6716 197.036 29.5808C196.825 29.4901 196.597 29.4107 196.352 29.3426L195.495 29.0976C194.95 28.9411 194.519 28.7176 194.201 28.4272C193.884 28.1368 193.725 27.7568 193.725 27.2872C193.725 26.897 193.831 26.5567 194.042 26.2663C194.255 25.9737 194.541 25.7468 194.899 25.5857C195.26 25.4224 195.662 25.3407 196.107 25.3407C196.556 25.3407 196.956 25.4212 197.305 25.5823C197.654 25.7411 197.931 25.9589 198.135 26.2357C198.342 26.5125 198.451 26.8267 198.462 27.1783H197.645ZM199.945 32.4053V25.436H204.151V26.1846H200.789V28.5395H203.933V29.2882H200.789V31.6566H204.205V32.4053H199.945ZM210.436 27.6139C210.361 27.3848 210.263 27.1794 210.14 26.998C210.02 26.8142 209.876 26.6577 209.708 26.5283C209.542 26.399 209.354 26.3003 209.143 26.2323C208.932 26.1642 208.701 26.1302 208.449 26.1302C208.036 26.1302 207.661 26.2368 207.322 26.4501C206.984 26.6633 206.716 26.9775 206.516 27.3927C206.316 27.8079 206.217 28.3172 206.217 28.9206C206.217 29.5241 206.317 30.0334 206.519 30.4486C206.721 30.8637 206.995 31.1779 207.34 31.3912C207.684 31.6044 208.072 31.7111 208.503 31.7111C208.903 31.7111 209.254 31.626 209.558 31.4558C209.865 31.2834 210.103 31.0407 210.273 30.7276C210.445 30.4123 210.531 30.0413 210.531 29.6148L210.79 29.6693H208.694V28.9206H211.348V29.6693C211.348 30.2433 211.226 30.7424 210.981 31.1666C210.738 31.5908 210.402 31.9198 209.973 32.1535C209.547 32.3849 209.057 32.5006 208.503 32.5006C207.886 32.5006 207.344 32.3554 206.877 32.065C206.412 31.7746 206.049 31.3617 205.788 30.8263C205.529 30.2909 205.4 29.6557 205.4 28.9206C205.4 28.3694 205.474 27.8737 205.621 27.4335C205.771 26.9911 205.982 26.6146 206.254 26.3037C206.526 25.9929 206.848 25.7547 207.22 25.5891C207.592 25.4235 208.002 25.3407 208.449 25.3407C208.816 25.3407 209.159 25.3963 209.477 25.5075C209.796 25.6163 210.081 25.7718 210.331 25.9737C210.583 26.1733 210.792 26.4126 210.96 26.6917C211.128 26.9685 211.244 27.2759 211.307 27.6139H210.436ZM217.367 25.436H218.211V30.0504C218.211 30.5268 218.099 30.9522 217.874 31.3265C217.652 31.6986 217.338 31.9924 216.932 32.2079C216.526 32.4212 216.049 32.5278 215.502 32.5278C214.956 32.5278 214.479 32.4212 214.073 32.2079C213.667 31.9924 213.352 31.6986 213.127 31.3265C212.905 30.9522 212.794 30.5268 212.794 30.0504V25.436H213.638V29.9824C213.638 30.3227 213.712 30.6255 213.862 30.891C214.012 31.1541 214.225 31.3617 214.502 31.5137C214.781 31.6634 215.114 31.7383 215.502 31.7383C215.89 31.7383 216.224 31.6634 216.503 31.5137C216.782 31.3617 216.995 31.1541 217.143 30.891C217.292 30.6255 217.367 30.3227 217.367 29.9824V25.436ZM219.896 32.4053V25.436H222.251C222.796 25.436 223.243 25.529 223.592 25.715C223.941 25.8988 224.2 26.1517 224.368 26.4739C224.536 26.796 224.62 27.1624 224.62 27.5731C224.62 27.9837 224.536 28.3478 224.368 28.6654C224.2 28.983 223.943 29.2326 223.595 29.4141C223.248 29.5933 222.805 29.6829 222.265 29.6829H220.359V28.9206H222.238C222.61 28.9206 222.909 28.8662 223.136 28.7573C223.365 28.6484 223.531 28.4941 223.633 28.2945C223.737 28.0926 223.789 27.8521 223.789 27.5731C223.789 27.294 223.737 27.0501 223.633 26.8414C223.529 26.6327 223.362 26.4716 223.133 26.3582C222.904 26.2425 222.601 26.1846 222.224 26.1846H220.74V32.4053H219.896ZM223.177 29.2745L224.892 32.4053H223.912L222.224 29.2745H223.177ZM231.906 28.9206C231.906 29.6557 231.774 30.2909 231.508 30.8263C231.243 31.3617 230.879 31.7746 230.416 32.065C229.953 32.3554 229.424 32.5006 228.83 32.5006C228.236 32.5006 227.707 32.3554 227.244 32.065C226.782 31.7746 226.417 31.3617 226.152 30.8263C225.887 30.2909 225.754 29.6557 225.754 28.9206C225.754 28.1856 225.887 27.5504 226.152 27.015C226.417 26.4796 226.782 26.0667 227.244 25.7763C227.707 25.4859 228.236 25.3407 228.83 25.3407C229.424 25.3407 229.953 25.4859 230.416 25.7763C230.879 26.0667 231.243 26.4796 231.508 27.015C231.774 27.5504 231.906 28.1856 231.906 28.9206ZM231.09 28.9206C231.09 28.3172 230.989 27.8079 230.787 27.3927C230.587 26.9775 230.316 26.6633 229.974 26.4501C229.633 26.2368 229.252 26.1302 228.83 26.1302C228.408 26.1302 228.026 26.2368 227.683 26.4501C227.343 26.6633 227.072 26.9775 226.87 27.3927C226.67 27.8079 226.571 28.3172 226.571 28.9206C226.571 29.5241 226.67 30.0334 226.87 30.4486C227.072 30.8637 227.343 31.1779 227.683 31.3912C228.026 31.6044 228.408 31.7111 228.83 31.7111C229.252 31.7111 229.633 31.6044 229.974 31.3912C230.316 31.1779 230.587 30.8637 230.787 30.4486C230.989 30.0334 231.09 29.5241 231.09 28.9206Z" fill="white"></path><path d="M153.7 18.3692H149.53V16.2607C149.53 14.5767 148.138 13.2068 146.428 13.2068C144.718 13.2068 143.327 14.5772 143.327 16.2607V18.3692H139.156V16.2607C139.156 12.3124 142.418 9.09961 146.428 9.09961C150.438 9.09961 153.7 12.3119 153.7 16.2607V18.3692H153.7Z" fill="#F9A11D"></path><path d="M155.382 18.3682H137.474C136.71 18.3682 136.084 18.9842 136.084 19.7371V32.7824C136.084 33.5352 136.71 34.1512 137.474 34.1512H155.382C156.146 34.1512 156.772 33.5352 156.772 32.7824V19.7371C156.772 18.9842 156.146 18.3682 155.382 18.3682ZM147.335 26.9334V28.7012C147.335 29.1946 146.929 29.5946 146.428 29.5946C145.928 29.5946 145.521 29.1941 145.521 28.7012V26.9339C144.963 26.6218 144.586 26.0329 144.586 25.3556C144.586 24.3535 145.411 23.5413 146.428 23.5413C147.446 23.5413 148.271 24.354 148.271 25.3556C148.271 26.0324 147.894 26.6213 147.335 26.9334Z" fill="white"></path><path d="M135.658 16.4245H131.337C130.636 16.4245 130.068 15.8652 130.068 15.1751C130.068 14.4851 130.636 13.9258 131.337 13.9258H135.658C136.359 13.9258 136.927 14.4851 136.927 15.1751C136.927 15.8652 136.359 16.4245 135.658 16.4245Z" fill="#F9A11D"></path><path d="M138.702 9.72981C138.418 9.72981 138.133 9.63685 137.897 9.44531L134.478 6.67739C133.937 6.23915 133.859 5.45204 134.305 4.91878C134.75 4.38604 135.549 4.30891 136.091 4.74716L139.509 7.51507C140.05 7.95332 140.128 8.74043 139.682 9.27368C139.432 9.57453 139.068 9.72981 138.702 9.72981Z" fill="#F9A11D"></path><path d="M146.427 6.78774C145.726 6.78774 145.158 6.22844 145.158 5.53838V1.24937C145.158 0.559303 145.726 0 146.427 0C147.128 0 147.696 0.559303 147.696 1.24937V5.53838C147.696 6.22844 147.128 6.78774 146.427 6.78774Z" fill="#F9A11D"></path><path d="M154.153 9.72981C153.786 9.72981 153.423 9.57454 153.172 9.27369C152.727 8.74094 152.804 7.95332 153.345 7.51507L156.764 4.74716C157.305 4.30891 158.104 4.38604 158.549 4.91878C158.995 5.45152 158.917 6.23915 158.376 6.6774L154.958 9.44531C154.722 9.63685 154.436 9.72981 154.153 9.72981Z" fill="#F9A11D"></path><path d="M161.518 16.4245H157.155C156.455 16.4245 155.887 15.8652 155.887 15.1751C155.887 14.4851 156.455 13.9258 157.155 13.9258H161.518C162.218 13.9258 162.786 14.4851 162.786 15.1751C162.786 15.8652 162.218 16.4245 161.518 16.4245Z" fill="#F9A11D"></path><path d="M55.8317 5.94021C54.9365 5.94303 54.0621 6.21107 53.3191 6.71049C52.5761 7.20991 51.9978 7.91831 51.6571 8.74621C51.3165 9.57411 51.2288 10.4844 51.4052 11.3621C51.5816 12.2398 52.0141 13.0455 52.6481 13.6775C53.2822 14.3096 54.0893 14.7395 54.9676 14.9131C55.8458 15.0868 56.7559 14.9962 57.5827 14.653C58.4095 14.3097 59.1161 13.7292 59.6132 12.9846C60.1103 12.2401 60.3756 11.3649 60.3756 10.4697C60.3847 9.87111 60.2733 9.27686 60.048 8.72226C59.8227 8.16767 59.4881 7.66408 59.0641 7.24146C58.6401 6.81885 58.1355 6.48585 57.5802 6.2623C57.0249 6.03875 56.4302 5.92921 55.8317 5.94021ZM55.8317 13.2143C55.2805 13.2539 54.7301 13.1265 54.2523 12.8489C53.7744 12.5713 53.3913 12.1562 53.1527 11.6577C52.9141 11.1592 52.8311 10.6005 52.9145 10.0542C52.998 9.50788 53.244 8.99937 53.6205 8.59486C53.997 8.19034 54.4867 7.90857 55.0256 7.78624C55.5645 7.6639 56.1278 7.70667 56.6421 7.90898C57.1564 8.11128 57.5978 8.46375 57.909 8.92047C58.2201 9.3772 58.3865 9.91703 58.3865 10.4697C58.4034 10.8187 58.3503 11.1676 58.2303 11.4958C58.1103 11.8239 57.9258 12.1248 57.6878 12.3806C57.4497 12.6364 57.1628 12.8419 56.844 12.9851C56.5253 13.1283 56.1811 13.2062 55.8317 13.2143Z" fill="white"></path><path d="M65.8981 5.94018C65.0029 5.94301 64.1285 6.21105 63.3855 6.71047C62.6425 7.20989 62.0642 7.91829 61.7235 8.74619C61.3829 9.57409 61.2952 10.4844 61.4716 11.3621C61.648 12.2398 62.0805 13.0455 62.7146 13.6775C63.3486 14.3096 64.1557 14.7395 65.034 14.9131C65.9123 15.0868 66.8223 14.9962 67.6491 14.653C68.476 14.3097 69.1825 13.7292 69.6796 12.9846C70.1767 12.24 70.442 11.3649 70.442 10.4696C70.4509 9.87115 70.3394 9.27697 70.114 8.72245C69.8887 8.16794 69.5541 7.66441 69.1301 7.24183C68.7062 6.81925 68.2016 6.48625 67.6464 6.26264C67.0911 6.03902 66.4966 5.92936 65.8981 5.94018ZM65.8981 13.2143C65.3469 13.2538 64.7965 13.1265 64.3187 12.8489C63.8409 12.5712 63.4577 12.1562 63.2191 11.6577C62.9805 11.1592 62.8975 10.6005 62.9809 10.0542C63.0644 9.50787 63.3104 8.99935 63.6869 8.59484C64.0635 8.19032 64.5531 7.90855 65.092 7.78622C65.6309 7.66388 66.1942 7.70665 66.7085 7.90896C67.2228 8.11126 67.6642 8.46373 67.9754 8.92046C68.2865 9.37719 68.4529 9.91701 68.4529 10.4696C68.4698 10.8187 68.4167 11.1676 68.2967 11.4957C68.1767 11.8239 67.9923 12.1248 67.7542 12.3806C67.5161 12.6363 67.2292 12.8419 66.9104 12.9851C66.5917 13.1283 66.2475 13.2062 65.8981 13.2143Z" fill="white"></path><path d="M77.5302 6.95082H77.4578C77.1421 6.6227 76.7568 6.36282 76.3276 6.18856C75.8984 6.0143 75.4353 5.92968 74.9692 5.94035C73.7509 5.98998 72.5998 6.48763 71.7561 7.32941C70.9124 8.17119 70.4414 9.29203 70.4414 10.4579C70.4414 11.6238 70.9124 12.7447 71.7561 13.5864C72.5998 14.4282 73.7509 14.9259 74.9692 14.9755C75.4371 14.9878 75.9022 14.9022 76.3321 14.7249C76.7619 14.5476 77.1461 14.2827 77.4578 13.9488H77.5302V14.5987C77.5302 16.3283 76.565 17.2471 75.0075 17.2471C74.4891 17.236 73.9859 17.0776 73.5621 16.7921C73.1382 16.5066 72.8128 16.1068 72.6275 15.6438L70.8207 16.3629C71.1623 17.1551 71.7435 17.8317 72.4898 18.3061C73.2361 18.7804 74.1135 19.031 75.0096 19.0256C77.4429 19.0256 79.5011 17.6627 79.5011 14.3257V6.21536H77.5302V6.95082ZM75.1545 13.197C74.4369 13.1389 73.7682 12.8253 73.2808 12.3182C72.7935 11.8111 72.5231 11.1476 72.5231 10.4589C72.5231 9.7703 72.7935 9.10675 73.2808 8.59968C73.7682 8.09261 74.4369 7.77898 75.1545 7.72089C76.5672 7.72089 77.6772 8.88417 77.6772 10.4752C77.7052 10.8137 77.6614 11.154 77.5487 11.4759C77.4359 11.7979 77.2564 12.0947 77.0209 12.3488C76.7854 12.6029 76.4988 12.8089 76.1781 12.9547C75.8574 13.1004 75.5093 13.1828 75.1545 13.197Z" fill="white"></path><path d="M82.5211 1.91309H80.5078V14.9993H82.5211V1.91309Z" fill="white"></path><path d="M91.3827 8.82101C91.1208 8.00074 90.622 7.28411 89.954 6.76855C89.286 6.25298 88.4812 5.9635 87.6492 5.93945C87.0886 5.943 86.5345 6.06454 86.0204 6.29673C85.5063 6.52892 85.0429 6.86694 84.6583 7.29035C84.2736 7.71375 83.9756 8.21375 83.7824 8.76011C83.5892 9.30647 83.5047 9.88784 83.534 10.4691C83.5213 11.0646 83.6243 11.6567 83.837 12.2099C84.0496 12.7631 84.3675 13.2662 84.7717 13.689C85.1758 14.1118 85.6579 14.4457 86.1892 14.6707C86.7204 14.8958 87.2899 15.0073 87.8636 14.9987C88.5822 15.0024 89.2905 14.821 89.9249 14.4706C90.5593 14.1203 91.1001 13.6119 91.4988 12.9912L90.0116 11.9619C89.7891 12.3464 89.4741 12.6642 89.0975 12.8841C88.7209 13.1039 88.2956 13.2183 87.8636 13.2158C87.4193 13.2332 86.9802 13.1116 86.6032 12.8669C86.2261 12.6223 85.9286 12.2657 85.7489 11.8435L91.5814 9.33565L91.3827 8.82101ZM85.4342 10.3323C85.4139 10.0028 85.4571 9.6724 85.5612 9.36043C85.6653 9.04847 85.8282 8.76117 86.0405 8.51533C86.2527 8.26948 86.5101 8.07002 86.7974 7.92861C87.0848 7.78719 87.3964 7.70665 87.7141 7.69169C88.0449 7.6691 88.3748 7.74806 88.6627 7.91874C88.9505 8.08941 89.1837 8.34426 89.333 8.65152L85.4342 10.3323Z" fill="white"></path><path d="M44.0345 7.35524V9.27965L48.4195 9.2776C48.3512 10.166 48.0011 11.0048 47.4251 11.6601C46.9853 12.1306 46.4563 12.4991 45.8723 12.7418C45.2882 12.9845 44.6622 13.0961 44.0345 13.0692C42.7514 13.0513 41.5266 12.5042 40.6253 11.5461C39.7239 10.5881 39.2186 9.2963 39.2186 7.95035C39.2186 6.6044 39.7239 5.3126 40.6253 4.35457C41.5266 3.39654 42.7514 2.84937 44.0345 2.8315C45.267 2.81435 46.4561 3.30825 47.3432 4.2058L48.6379 2.84786C48.0326 2.21945 47.3139 1.7241 46.5237 1.39083C45.7336 1.05757 44.888 0.893101 44.0365 0.907071C43.1464 0.893436 42.2626 1.06554 41.4365 1.41338C40.6104 1.76122 39.8585 2.27785 39.2244 2.93323C38.5904 3.58861 38.0869 4.36967 37.7433 5.23097C37.3996 6.09228 37.2227 7.01665 37.2227 7.95035C37.2227 8.88404 37.3996 9.80841 37.7433 10.6697C38.0869 11.531 38.5904 12.3121 39.2244 12.9675C39.8585 13.6228 40.6104 14.1395 41.4365 14.4873C42.2626 14.8352 43.1464 15.0073 44.0365 14.9936C44.906 15.0312 45.7732 14.8746 46.5806 14.534C47.388 14.1934 48.1172 13.6767 48.7198 13.0181C49.3492 12.2466 49.8095 11.3396 50.0682 10.3611C50.3269 9.38268 50.3778 8.35659 50.2172 7.35526L44.0345 7.35524Z" fill="white"></path><path d="M40.7401 24.7218C40.1377 24.551 39.5651 24.2885 39.0425 23.9436C38.931 23.8469 38.8416 23.7273 38.7805 23.593C38.7194 23.4587 38.6879 23.3128 38.6883 23.1652C38.6852 22.9916 38.7248 22.8198 38.8036 22.6651C38.8824 22.5103 38.998 22.3773 39.1402 22.2776C39.4531 22.0478 39.8294 21.9205 40.2176 21.9131C40.6057 21.9057 40.9866 22.0186 41.308 22.2364C41.5854 22.436 41.7893 22.7215 41.8881 23.0486L42.9385 22.6089C42.7653 22.0907 42.4206 21.647 41.9614 21.351C41.4514 21.0024 40.8447 20.823 40.2271 20.838C39.5249 20.8182 38.8408 21.0623 38.3097 21.522C38.0676 21.7229 37.8731 21.975 37.74 22.2601C37.607 22.5451 37.5387 22.8561 37.5402 23.1707C37.5379 23.6179 37.6692 24.0556 37.9173 24.4276C38.1653 24.7997 38.5188 25.0893 38.9325 25.2592C39.1035 25.3489 39.5391 25.5199 40.2394 25.7721C40.7577 25.9145 41.2403 26.1642 41.656 26.5049C41.7851 26.6249 41.8876 26.7705 41.9571 26.9325C42.0265 27.0945 42.0612 27.2692 42.0591 27.4454C42.0659 27.6474 42.0253 27.8482 41.9405 28.0317C41.8556 28.2151 41.7289 28.3762 41.5705 28.5018C41.2108 28.7777 40.7655 28.9182 40.3126 28.8987C40.0825 28.8999 39.8544 28.8563 39.6409 28.7705C39.4293 28.6852 39.2333 28.5655 39.0608 28.4163C38.8808 28.26 38.7262 28.0767 38.6027 27.8728C38.4685 27.6521 38.3657 27.4136 38.2975 27.1645L37.2227 27.6041C37.4047 28.2925 37.8081 28.9019 38.3707 29.3383C38.9199 29.7604 39.5957 29.9842 40.2882 29.9734C41.0391 29.9946 41.7737 29.7521 42.3644 29.288C42.6382 29.066 42.8568 28.7835 43.003 28.4627C43.1493 28.142 43.2191 27.7917 43.2072 27.4394C43.2243 26.8509 43.0219 26.2772 42.6393 25.8298C42.1122 25.3031 41.458 24.9214 40.7401 24.7218Z" fill="white"></path><path d="M46.6391 23.5973C46.1695 23.5703 45.7008 23.6639 45.2776 23.8691C44.8543 24.0743 44.4906 24.3844 44.2209 24.7698L45.2102 25.3926C45.3695 25.1435 45.5902 24.9396 45.8512 24.8006C46.1122 24.6615 46.4045 24.5921 46.7002 24.5988C47.1011 24.5935 47.4893 24.7396 47.7872 25.0079C47.9336 25.129 48.0512 25.2811 48.1315 25.4533C48.2117 25.6254 48.2527 25.8133 48.2513 26.0033V26.2598C47.7425 25.9975 47.1745 25.8713 46.6025 25.8934C45.9334 25.8591 45.2724 26.0529 44.7277 26.443C44.501 26.6152 44.3188 26.8392 44.1966 27.0964C44.0744 27.3535 44.0157 27.6363 44.0255 27.9208C44.0204 28.1992 44.0776 28.4753 44.1927 28.7288C44.3079 28.9824 44.4781 29.207 44.6911 29.3864C45.1496 29.7827 45.7404 29.9919 46.346 29.9726C46.7179 29.9773 47.0845 29.8852 47.41 29.7053C47.7355 29.5255 48.0086 29.264 48.2024 28.9467H48.2513V29.7772H49.326V26.0888C49.3437 25.7506 49.2886 25.4125 49.1642 25.0975C49.0399 24.7825 48.8493 24.4979 48.6054 24.2629C48.0602 23.796 47.3558 23.5576 46.6391 23.5973ZM47.6955 28.446C47.3604 28.7815 46.9057 28.9704 46.4315 28.9712C46.1153 28.9771 45.8068 28.8736 45.5582 28.678C45.4422 28.5944 45.3479 28.4843 45.2831 28.3568C45.2183 28.2293 45.1849 28.0882 45.1857 27.9452C45.1875 27.7814 45.2304 27.6207 45.3104 27.4777C45.3904 27.3348 45.5051 27.2142 45.6437 27.127C45.9794 26.898 46.3796 26.7824 46.7857 26.7972C47.3071 26.7659 47.8238 26.9123 48.2513 27.2125C48.2514 27.4457 48.2019 27.6764 48.1061 27.889C48.0103 28.1017 47.8704 28.2915 47.6955 28.446Z" fill="white"></path><path d="M51.7755 21.4848C51.5857 21.6722 51.4372 21.8972 51.3394 22.1454C51.2416 22.3935 51.1967 22.6594 51.2076 22.9259V23.7931H50.084V24.819H51.2076V29.7775H52.3312V24.819H53.8943V23.7931H52.3312V23.0358C52.3174 22.757 52.4114 22.4837 52.5939 22.2725C52.6793 22.1784 52.7842 22.1039 52.9012 22.0544C53.0182 22.0048 53.1446 21.9813 53.2717 21.9855C53.4999 21.9819 53.7259 22.0321 53.9312 22.1321L54.2363 21.1427C53.9243 20.9931 53.5806 20.9219 53.2348 20.9352C52.9672 20.925 52.7003 20.9684 52.4497 21.0628C52.1991 21.1572 51.9699 21.3006 51.7755 21.4848Z" fill="white"></path><path d="M57.2153 23.5976C56.8162 23.5859 56.4194 23.6612 56.0524 23.8183C55.6854 23.9755 55.357 24.2107 55.0902 24.5076C54.5299 25.1313 54.2323 25.9473 54.2597 26.7853C54.231 27.6297 54.5384 28.4511 55.1145 29.0692C55.3921 29.3654 55.7295 29.5991 56.1042 29.7549C56.479 29.9107 56.8827 29.985 57.2884 29.9729C57.8569 29.982 58.4169 29.8341 58.9068 29.5455C59.3819 29.2618 59.7688 28.8516 60.0242 28.3608L59.0227 27.8723C58.8928 28.1434 58.7001 28.3796 58.4607 28.5615C58.2213 28.7433 57.9421 28.8656 57.6461 28.9181C57.3501 28.9706 57.0459 28.9518 56.7585 28.8634C56.4712 28.775 56.2091 28.6195 55.9938 28.4096C55.8054 28.2253 55.6564 28.0048 55.5556 27.7613C55.4549 27.5178 55.4045 27.2564 55.4076 26.9929H60.1097L60.1219 26.8708C60.176 25.9958 59.8943 25.1331 59.3342 24.4587C59.0643 24.1706 58.735 23.9444 58.3692 23.7957C58.0034 23.647 57.6097 23.5795 57.2153 23.5976ZM55.4932 26.0647C55.5723 25.6572 55.785 25.2876 56.0976 25.0144C56.4016 24.7543 56.7907 24.6152 57.1907 24.6236C57.6368 24.6006 58.0751 24.7467 58.4181 25.0327C58.5667 25.1626 58.6881 25.3207 58.7751 25.4979C58.8621 25.675 58.9131 25.8677 58.925 26.0647H55.4932Z" fill="white"></path><path d="M68.5369 25.2838V25.235C68.9014 25.0958 69.2124 24.8447 69.4252 24.5177C69.6381 24.1908 69.7418 23.8048 69.7216 23.4152C69.7292 23.0949 69.6665 22.7769 69.5377 22.4835C69.409 22.1902 69.2174 21.9287 68.9765 21.7176C68.4934 21.2669 67.854 21.0216 67.1934 21.0336H64.0303V29.7783H67.3644C68.0562 29.797 68.7275 29.5425 69.2331 29.0699C69.4856 28.8478 69.6864 28.573 69.8214 28.265C69.9564 27.9569 70.0224 27.623 70.0146 27.2868C70.0204 26.8405 69.8787 26.4047 69.6116 26.0471C69.3433 25.6852 68.967 25.4179 68.5369 25.2838ZM65.1539 22.1084H67.2423C67.4224 22.1046 67.6012 22.1384 67.7674 22.2079C67.9335 22.2773 68.0833 22.3807 68.2072 22.5114C68.3319 22.6333 68.4308 22.7791 68.4979 22.9401C68.5651 23.1011 68.5991 23.2739 68.5979 23.4483C68.5968 23.6227 68.5605 23.7951 68.4913 23.9552C68.422 24.1153 68.3212 24.2597 68.1949 24.38C68.0643 24.512 67.9081 24.6159 67.7359 24.6852C67.5636 24.7545 67.379 24.7878 67.1934 24.7831H65.1539V22.1084ZM68.4513 28.2761C68.3167 28.4145 68.1551 28.5238 67.9766 28.5973C67.7981 28.6708 67.6064 28.707 67.4133 28.7035H65.1539V25.8334H67.3644C67.5632 25.8276 67.7612 25.8625 67.946 25.936C68.1308 26.0095 68.2987 26.1201 68.4392 26.2609C68.575 26.3898 68.683 26.5452 68.7565 26.7174C68.83 26.8897 68.8675 27.0751 68.8667 27.2624C68.8688 27.4506 68.8331 27.6372 68.7618 27.8114C68.6904 27.9855 68.5849 28.1435 68.4513 28.2761Z" fill="white"></path><path d="M72.9157 23.9587C72.5962 24.1418 72.3486 24.4283 72.2136 24.7709H72.1646V23.7938H71.0898V29.7783H72.2136V26.4807C72.2092 26.0359 72.3777 25.6068 72.6837 25.2838C72.8198 25.1235 72.9892 24.9945 73.18 24.906C73.3708 24.8174 73.5786 24.7713 73.789 24.7709C74.0122 24.7596 74.2356 24.7886 74.4485 24.8564L74.7905 23.7694C74.5264 23.665 74.2439 23.6152 73.96 23.6228C73.5869 23.6325 73.2245 23.7491 72.9157 23.9587Z" fill="white"></path><path d="M77.8921 23.598C77.4811 23.5865 77.0722 23.661 76.6915 23.8167C76.3109 23.9723 75.9669 24.2056 75.6816 24.5018C75.123 25.1314 74.8145 25.9439 74.8145 26.7857C74.8145 27.6274 75.123 28.4399 75.6816 29.0695C75.9669 29.3657 76.3109 29.599 76.6915 29.7546C77.0722 29.9103 77.4811 29.9847 77.8921 29.9733C78.3015 29.9854 78.7088 29.9112 79.0876 29.7555C79.4664 29.5998 79.8081 29.3661 80.0906 29.0695C80.6565 28.4435 80.9698 27.6296 80.9698 26.7857C80.9698 25.9417 80.6565 25.1278 80.0906 24.5018C79.8081 24.2052 79.4664 23.9715 79.0876 23.8158C78.7088 23.66 78.3015 23.5858 77.8921 23.598ZM79.2844 28.3489C79.1051 28.538 78.8892 28.6885 78.6499 28.7914C78.4105 28.8943 78.1527 28.9474 77.8921 28.9474C77.6316 28.9474 77.3738 28.8943 77.1344 28.7914C76.895 28.6885 76.6791 28.538 76.4998 28.3489C76.1368 27.9112 75.938 27.3604 75.938 26.7918C75.938 26.2231 76.1368 25.6723 76.4998 25.2346C76.6771 25.0421 76.8923 24.8884 77.132 24.7833C77.3716 24.6782 77.6305 24.6239 77.8921 24.6239C78.1538 24.6239 78.4126 24.6782 78.6523 24.7833C78.8919 24.8884 79.1072 25.0421 79.2844 25.2346C79.6475 25.6723 79.8462 26.2231 79.8462 26.7918C79.8462 27.3604 79.6475 27.9112 79.2844 28.3489Z" fill="white"></path><path d="M87.8824 28.3115H87.87L86.3921 23.793H85.2319L83.7545 28.3115H83.742L82.411 23.793H81.2383L83.1681 29.7774H84.3039L85.7818 25.185L87.2716 29.7774H88.4198L90.3492 23.793H89.2015L87.8824 28.3115Z" fill="white"></path><path d="M93.8791 26.3205L92.9753 26.0884C92.3321 25.9419 92.0105 25.6976 92.0104 25.3556C92.0155 25.2432 92.0504 25.1342 92.1116 25.0397C92.1728 24.9453 92.258 24.8688 92.3586 24.8183C92.5945 24.6706 92.868 24.5943 93.1463 24.5984C93.4469 24.5942 93.7435 24.6679 94.0073 24.8122C94.2528 24.943 94.4481 25.1512 94.5631 25.4045L95.5645 24.9893C95.3882 24.5598 95.0718 24.2025 94.6668 23.9756C94.1823 23.7086 93.6342 23.5783 93.0814 23.5988C92.5285 23.6192 91.9916 23.7896 91.5281 24.0916C91.3174 24.2385 91.1463 24.4353 91.0302 24.6644C90.9141 24.8934 90.8564 25.1477 90.8624 25.4045C90.8624 26.235 91.4446 26.7968 92.6089 27.0899L93.6347 27.3464C94.2211 27.5256 94.5142 27.8065 94.5142 28.1891C94.5075 28.3043 94.4707 28.4156 94.4075 28.5121C94.3443 28.6085 94.2568 28.6867 94.1539 28.7387C93.8835 28.9016 93.5716 28.9822 93.2562 28.9708C92.9249 28.9717 92.6019 28.8669 92.3342 28.6716C92.0441 28.4605 91.8214 28.1699 91.6929 27.8349L90.6914 28.2624C90.8802 28.7672 91.2218 29.2005 91.6685 29.5021C92.1364 29.8191 92.6911 29.9834 93.2562 29.9722C93.8748 29.9956 94.4827 29.8059 94.9783 29.4349C95.1891 29.2854 95.3611 29.0877 95.4801 28.8582C95.599 28.6288 95.6614 28.3743 95.6621 28.1158C95.6622 27.2121 95.0678 26.6136 93.8791 26.3205Z" fill="white"></path><path d="M97.7996 23.793H96.6758V29.7774H97.7996V23.793Z" fill="white"></path><path d="M97.238 20.9357C97.0547 20.936 96.8773 20.9999 96.7359 21.1164C96.5944 21.2328 96.4977 21.3947 96.4623 21.5745C96.4268 21.7543 96.4547 21.9408 96.5413 22.1022C96.6278 22.2637 96.7677 22.3902 96.9371 22.4602C97.1064 22.5301 97.2948 22.5392 97.4701 22.4859C97.6454 22.4326 97.7968 22.3201 97.8985 22.1677C98.0002 22.0153 98.0459 21.8324 98.0279 21.6501C98.0099 21.4677 97.9293 21.2973 97.7997 21.1677C97.7269 21.0927 97.6395 21.0335 97.5429 20.9935C97.4462 20.9536 97.3425 20.9339 97.238 20.9357Z" fill="white"></path><path d="M102.282 23.5973C101.895 23.5986 101.514 23.6996 101.177 23.8905C100.852 24.058 100.58 24.3115 100.389 24.6233H100.34V23.7928H99.2656V29.7772H100.389V26.4674C100.379 25.9936 100.539 25.5318 100.841 25.1668C100.974 24.9957 101.144 24.8577 101.339 24.7634C101.534 24.6691 101.748 24.6212 101.965 24.6233C102.925 24.6233 103.418 25.1118 103.443 26.0888V29.7773H104.566V26.0156C104.609 25.3649 104.396 24.7233 103.974 24.2264C103.752 24.0085 103.487 23.8399 103.195 23.7315C102.904 23.6231 102.593 23.5774 102.282 23.5973Z" fill="white"></path><path d="M110.416 23.7942V24.6247H110.367C110.15 24.3032 109.853 24.0442 109.506 23.8736C109.14 23.6896 108.736 23.5954 108.327 23.5987C107.944 23.5973 107.565 23.6797 107.217 23.84C106.869 24.0004 106.56 24.2348 106.312 24.5269C105.758 25.1469 105.461 25.955 105.481 26.7864C105.462 27.6212 105.759 28.4326 106.312 29.058C106.562 29.3472 106.871 29.5788 107.219 29.7369C107.567 29.8951 107.945 29.9759 108.327 29.974C108.736 29.9773 109.14 29.8832 109.506 29.6993C109.853 29.5286 110.15 29.2696 110.367 28.9481H110.416V29.5221C110.447 30.0744 110.263 30.6174 109.903 31.0366C109.717 31.2244 109.494 31.3706 109.247 31.4653C109.001 31.5601 108.737 31.6013 108.474 31.5862C108.099 31.5935 107.731 31.4824 107.423 31.2686C107.127 31.063 106.904 30.7676 106.788 30.4259L105.726 30.8656C105.813 31.1228 105.946 31.3626 106.117 31.574C106.291 31.7891 106.5 31.9747 106.733 32.1236C106.981 32.2817 107.251 32.403 107.533 32.4839C107.839 32.5711 108.156 32.6143 108.474 32.6121C108.877 32.6303 109.28 32.5661 109.658 32.4233C110.036 32.2805 110.381 32.0622 110.672 31.7816C110.954 31.4799 111.172 31.1241 111.313 30.7357C111.453 30.3474 111.514 29.9345 111.49 29.5221V23.7942H110.416ZM109.866 28.3497C109.699 28.5441 109.49 28.6988 109.256 28.8023C109.021 28.9059 108.767 28.9557 108.51 28.9481C108.253 28.952 107.999 28.8993 107.764 28.7937C107.53 28.6882 107.322 28.5324 107.155 28.3375C106.778 27.9108 106.581 27.355 106.605 26.7864C106.584 26.2182 106.78 25.6634 107.155 25.2353C107.322 25.0404 107.53 24.8846 107.764 24.7791C107.999 24.6736 108.253 24.6209 108.51 24.6247C108.767 24.6192 109.023 24.6712 109.257 24.7768C109.492 24.8825 109.7 25.0391 109.866 25.2353C110.222 25.6764 110.416 26.2259 110.416 26.7925C110.416 27.3591 110.222 27.9086 109.866 28.3497Z" fill="white"></path><path d="M0 4.95028V8.30055C0 17.6122 0.0176571 24.0427 5.43408 29.4567C7.69975 31.4523 10.0986 33.2914 12.6139 34.9614V1.84473C7.31609 1.84473 2.01823 4.21111 0 4.95028Z" fill="#67BC6B"></path><path d="M25.2282 4.90739C22.7054 4.12533 17.9121 1.84473 12.6143 1.84473V34.9588C15.1394 33.2914 17.5468 31.4522 19.8193 29.4541C25.2459 24.0276 25.2282 18.3286 25.2282 9.54176V4.90739Z" fill="#398F43"></path><mask id="mask0_115_167" style="mask-type:luminance" maskUnits="userSpaceOnUse" x="0" y="1" width="26" height="34"><path d="M12.7572 1.84473C7.00268 1.84473 2.02018 4.20858 0.00195312 4.94776V8.29803C0.00195312 17.6096 0.0372859 24.0402 5.45369 29.4541C7.71442 31.4482 10.1073 33.2873 12.6159 34.9589C15.141 33.2914 17.5484 31.4522 19.821 29.4541C25.2475 24.0276 25.2298 18.3286 25.2298 9.54177V4.90739C22.7045 4.12789 18.1761 1.84473 12.7572 1.84473Z" fill="white"></path></mask><g mask="url(#mask0_115_167)"><path d="M26.3249 4.94531H-0.97168V7.19059H26.3249V4.94531Z" fill="url(#paint0_linear_115_167)"></path></g><mask id="mask1_115_167" style="mask-type:luminance" maskUnits="userSpaceOnUse" x="5" y="5" width="15" height="26"><path d="M12.6287 5.38379C9.07665 5.38379 5.76172 7.86116 5.76172 7.86116C5.76172 7.86116 5.98878 13.0051 5.98878 15.0688C5.98878 19.5291 6.83895 23.2148 8.82186 25.9672C9.99676 27.4197 11.2695 28.7903 12.6313 30.0693C13.9657 28.7834 15.2162 27.4133 16.3751 25.9672C18.358 23.2149 19.1502 19.5291 19.1502 15.0688C19.1502 13.0051 19.4226 7.86117 19.4226 7.86117C19.4226 7.86117 16.0118 5.38379 12.6287 5.38379Z" fill="white"></path></mask><g mask="url(#mask1_115_167)"><path d="M12.7271 34.7158C14.9926 34.7158 16.8291 32.8793 16.8291 30.6138C16.8291 28.3483 14.9926 26.5117 12.7271 26.5117C10.4616 26.5117 8.625 28.3483 8.625 30.6138C8.625 32.8793 10.4616 34.7158 12.7271 34.7158Z" fill="#FAFBFC"></path><path d="M12.7265 37.7206C11.3349 37.7206 9.97456 37.3079 8.81748 36.5348C7.6604 35.7616 6.75857 34.6628 6.22603 33.3771C5.69348 32.0914 5.55414 30.6767 5.82563 29.3118C6.09711 27.947 6.76723 26.6933 7.75124 25.7093C8.73525 24.7252 9.98896 24.0551 11.3538 23.7836C12.7187 23.5121 14.1334 23.6515 15.4191 24.184C16.7048 24.7166 17.8036 25.6184 18.5768 26.7755C19.3499 27.9326 19.7626 29.2929 19.7626 30.6845C19.7626 31.6085 19.5806 32.5234 19.227 33.3771C18.8734 34.2307 18.3551 35.0064 17.7018 35.6597C17.0484 36.3131 16.2727 36.8314 15.4191 37.185C14.5654 37.5386 13.6505 37.7206 12.7265 37.7206ZM12.7265 25.0259C11.6073 25.0259 10.5133 25.3578 9.58275 25.9795C8.65219 26.6013 7.92691 27.4851 7.49863 28.519C7.07034 29.553 6.95828 30.6908 7.17661 31.7884C7.39495 32.8861 7.93388 33.8944 8.72525 34.6858C9.51663 35.4771 10.5249 36.0161 11.6226 36.2344C12.7202 36.4527 13.858 36.3407 14.892 35.9124C15.9259 35.4841 16.8097 34.7588 17.4315 33.8283C18.0532 32.8977 18.3851 31.8037 18.3851 30.6845C18.3831 29.1844 17.7863 27.7462 16.7255 26.6855C15.6648 25.6247 14.2267 25.0279 12.7265 25.0259Z" fill="#FAFBFC"></path><path d="M12.727 40.7332C10.7396 40.7332 8.79688 40.1439 7.14446 39.0398C5.49203 37.9357 4.20412 36.3664 3.44359 34.5303C2.68306 32.6942 2.48408 30.6738 2.87179 28.7247C3.25951 26.7755 4.21651 24.9851 5.62179 23.5798C7.02707 22.1745 8.8175 21.2175 10.7667 20.8298C12.7158 20.4421 14.7362 20.6411 16.5723 21.4016C18.4084 22.1621 19.9777 23.45 21.0818 25.1025C22.1859 26.7549 22.7752 28.6976 22.7752 30.685C22.7726 33.3491 21.7131 35.9034 19.8292 37.7872C17.9454 39.6711 15.3911 40.7306 12.727 40.7332ZM12.727 22.0823C11.0255 22.0823 9.36227 22.5868 7.94756 23.5321C6.53285 24.4774 5.43022 25.8209 4.7791 27.3929C4.12798 28.9648 3.95761 30.6945 4.28955 32.3633C4.62148 34.0321 5.44081 35.5649 6.64392 36.768C7.84703 37.9711 9.37989 38.7905 11.0486 39.1224C12.7174 39.4543 14.4471 39.284 16.0191 38.6329C17.591 37.9817 18.9346 36.8791 19.8798 35.4644C20.8251 34.0497 21.3297 32.3865 21.3297 30.685C21.3263 28.4047 20.4188 26.2188 18.8062 24.6066C17.1935 22.9944 15.0073 22.0875 12.727 22.0849V22.0823Z" fill="#FAFBFC"></path><path d="M12.5306 18.2526C14.8268 18.2526 16.6882 16.3912 16.6882 14.0951C16.6882 11.7989 14.8268 9.9375 12.5306 9.9375C10.2344 9.9375 8.37305 11.7989 8.37305 14.0951C8.37305 16.3912 10.2344 18.2526 12.5306 18.2526Z" fill="#FAFBFC"></path></g><path d="M25.2273 4.7933V2.22006C25.1176 1.63805 24.8224 1.10721 24.3858 0.707007C23.9492 0.306803 23.3948 0.0587568 22.8054 0H2.21191C1.64641 0.0646565 1.11967 0.319593 0.718117 0.722984C0.316561 1.12638 0.0640299 1.65427 0.00195312 2.22006V4.7933H25.2273Z" fill="#E0E1E0"></path><path d="M3.11279 3.43847C3.52242 3.43847 3.85449 3.10641 3.85449 2.69678C3.85449 2.28715 3.52242 1.95508 3.11279 1.95508C2.70316 1.95508 2.37109 2.28715 2.37109 2.69678C2.37109 3.10641 2.70316 3.43847 3.11279 3.43847Z" fill="white"></path><path d="M5.82764 3.43847C6.23726 3.43847 6.56933 3.10641 6.56933 2.69678C6.56933 2.28715 6.23726 1.95508 5.82764 1.95508C5.41801 1.95508 5.08594 2.28715 5.08594 2.69678C5.08594 3.10641 5.41801 3.43847 5.82764 3.43847Z" fill="white"></path></g><defs><linearGradient id="paint0_linear_115_167" x1="12.6766" y1="4.59244" x2="12.6766" y2="6.44668" gradientUnits="userSpaceOnUse"><stop stop-color="#273339" stop-opacity="0.35"></stop><stop offset="0.42" stop-color="#273339" stop-opacity="0.15"></stop><stop offset="0.89" stop-color="#273339" stop-opacity="0.02"></stop><stop offset="1" stop-color="#273339" stop-opacity="0"></stop></linearGradient></defs></svg>