<svg xmlns="http://www.w3.org/2000/svg" width="263" height="89" viewBox="0 0 263 89" fill="none"><path d="M140.734 19.4398H144.273C144.908 16.0422 147.837 13.3086 151.571 13.3086C155.818 13.3086 158.795 16.3623 158.795 20.9667C158.795 21.459 158.746 21.8534 158.697 22.1978H147.275C147.812 24.2906 149.521 25.5224 151.571 25.5224C153.328 25.5224 154.646 24.8329 155.696 23.6261L157.795 25.5717C156.404 27.1722 154.329 28.2804 151.572 28.2804C147.837 28.2804 144.908 25.596 144.274 22.1984H140.734V19.4404V19.4398ZM155.769 19.4398C155.622 18.5781 155.232 17.79 154.671 17.2234C153.938 16.4846 152.865 16.0167 151.571 16.0167C150.277 16.0167 149.228 16.4603 148.447 17.2478C147.91 17.7894 147.471 18.5282 147.251 19.4392H155.769V19.4398ZM160.919 13.4072H163.994V25.2272H169.559V28.1824H164.043C162.018 28.1824 160.919 27.0742 160.919 25.0307V13.4072H160.919ZM170.144 20.7945C170.144 16.7804 173.391 13.3086 177.686 13.3086C181.493 13.3086 184.471 16.0173 185.105 19.4398H188.644V22.1978H185.105C184.446 25.596 181.469 28.2797 177.686 28.2797C173.366 28.2797 170.144 24.8322 170.144 20.7939V20.7945ZM177.686 25.3745C180.249 25.3745 182.153 23.4046 182.153 20.8188C182.153 18.233 180.2 16.2138 177.686 16.2138C175.172 16.2138 173.22 18.1837 173.22 20.7939C173.22 23.404 175.172 25.3739 177.686 25.3739V25.3745Z" fill="#D9D9D9"></path><path d="M91.359 12.4466L84.4076 29.0318H79.8723L76.4515 15.7961C76.2439 14.9809 76.0633 14.6822 75.4317 14.3387C74.4004 13.7793 72.6975 13.2544 71.1992 12.9287L71.301 12.4466H78.6014C79.5319 12.4466 80.3684 13.0661 80.5797 14.1377L82.3864 23.7347L86.8514 12.4464H91.359V12.4466ZM109.129 23.6169C109.147 19.2396 103.076 18.9984 103.118 17.043C103.131 16.4479 103.697 15.8152 104.938 15.6537C105.552 15.5732 107.246 15.5118 109.167 16.3959L109.921 12.8789C108.889 12.5042 107.56 12.1436 105.908 12.1436C101.667 12.1436 98.6826 14.3979 98.6574 17.626C98.63 20.0136 100.788 21.346 102.413 22.1394C104.085 22.9518 104.646 23.4739 104.64 24.2007C104.628 25.3132 103.306 25.8043 102.071 25.8237C99.9145 25.8569 98.6632 25.2402 97.6657 24.7764L96.8881 28.4099C97.8905 28.8698 99.7409 29.271 101.659 29.2912C106.167 29.2912 109.115 27.0648 109.129 23.6169ZM120.327 29.0318H124.295L120.831 12.4466H117.169C116.345 12.4466 115.651 12.9262 115.343 13.6634L108.905 29.0318H113.41L114.305 26.5546H119.809L120.327 29.0318ZM115.54 23.1554L117.798 16.9282L119.098 23.1554H115.54ZM97.489 12.4466L93.9413 29.0318H89.651L93.2002 12.4466H97.489Z" fill="#D9D9D9"></path><path d="M36.4046 10.7275H24.0586V30.8923H36.4046V10.7275Z" fill="#B6B6B6"></path><path d="M25.3306 20.8108C25.3291 18.8692 25.7693 16.9526 26.6178 15.2061C27.4664 13.4596 28.7011 11.9291 30.2285 10.7303C28.3367 9.24354 26.0648 8.31903 23.6725 8.06241C21.2802 7.80579 18.8639 8.2274 16.6999 9.27905C14.5358 10.3307 12.7113 11.97 11.4348 14.0095C10.1584 16.0491 9.48145 18.4066 9.48145 20.8126C9.48145 23.2187 10.1584 25.5762 11.4348 27.6157C12.7113 29.6553 14.5358 31.2945 16.6999 32.3462C18.8639 33.3978 21.2802 33.8194 23.6725 33.5628C26.0648 33.3062 28.3367 32.3817 30.2285 30.895C28.7006 29.6958 27.4656 28.1646 26.617 26.4175C25.7685 24.6704 25.3286 22.7531 25.3306 20.8108Z" fill="#D9D9D9"></path><path d="M50.9784 20.81C50.9783 23.2162 50.3013 25.5739 49.0246 27.6135C47.7479 29.6531 45.9231 31.2924 43.7587 32.3439C41.5944 33.3954 39.1779 33.8167 36.7855 33.5597C34.393 33.3027 32.1211 32.3778 30.2295 30.8906C31.7563 29.6907 32.9906 28.1597 33.8394 26.4132C34.6882 24.6666 35.1292 22.7501 35.1292 20.8082C35.1292 18.8664 34.6882 16.9499 33.8394 15.2033C32.9906 13.4568 31.7563 11.9258 30.2295 10.7259C32.1211 9.2387 34.393 8.31374 36.7855 8.05675C39.1779 7.79976 41.5944 8.2211 43.7587 9.2726C45.9231 10.3241 47.7479 11.9634 49.0246 14.003C50.3013 16.0426 50.9783 18.4002 50.9784 20.8065V20.81Z" fill="#7A7A7A"></path><path fill-rule="evenodd" clip-rule="evenodd" d="M231.969 69.5996C230.79 69.5996 230.981 71.1579 230.986 71.9739C230.986 72.1487 230.997 72.3223 231.003 72.4971H231.83C232.661 72.4971 233.036 71.965 233.036 71.4101C233.036 70.8551 232.997 69.5996 231.969 69.5996Z" fill="#D9D9D9"></path><path fill-rule="evenodd" clip-rule="evenodd" d="M237.713 69.4043C237.019 69.4043 236.736 70.034 236.693 70.4787H238.646C238.646 70.077 238.472 69.4043 237.713 69.4043Z" fill="#D9D9D9"></path><path fill-rule="evenodd" clip-rule="evenodd" d="M246.649 75.9308L242.58 58.8182C241.986 56.3198 239.457 54.7628 236.959 55.3569L219.847 59.4251C217.348 60.0193 215.791 62.5481 216.385 65.0465L219.843 79.5897H245.991C246.682 78.5483 246.959 77.2357 246.649 75.9308ZM227.519 66.1272C227.988 66.1272 228.367 66.5073 228.367 66.9748C228.367 67.4423 227.987 67.8224 227.519 67.8224C227.052 67.8224 226.672 67.4423 226.672 66.9748C226.672 66.5073 227.052 66.1272 227.519 66.1272ZM225.842 73.7326H224.192V70.673H221.469V73.7326H219.81V66.4211H221.469V69.2312H224.192V66.4211H225.842V73.7326ZM231.829 73.7934H231.026C231.034 74.4712 231.035 75.1516 231.035 75.8307H229.34C229.34 75.1782 229.345 74.4953 229.349 73.7934C227.517 73.7871 226.672 72.6241 226.672 71.4103V68.4203H228.367V71.4103C228.367 71.9652 228.675 72.4961 229.355 72.4974C229.36 71.1519 229.355 69.7658 229.309 68.4216H230.726C230.757 68.6801 230.785 68.9398 230.811 69.2008C231.48 67.8629 233.589 68.1568 234.299 69.2869C235.032 70.4538 235.28 73.7947 231.831 73.7947L231.829 73.7934ZM240.121 71.6067H236.704C236.759 72.2896 237.432 72.6152 238.202 72.6152C238.766 72.6152 239.222 72.5392 239.667 72.3985L239.883 73.516C239.341 73.7326 238.68 73.8416 237.962 73.8416C236.162 73.8416 235.131 72.8002 235.131 71.1405C235.131 69.795 235.966 68.3089 237.81 68.3089C239.525 68.3089 240.176 69.6429 240.176 70.9555C240.176 71.238 240.143 71.4876 240.121 71.6067ZM243.958 69.8811C243.839 69.8596 243.698 69.8381 243.513 69.8381C242.905 69.8381 242.493 70.1637 242.384 70.673C242.363 70.7819 242.351 70.9112 242.351 71.0416V73.7314H240.703V70.1738C240.703 69.3921 240.681 68.8828 240.66 68.4267H242.081L242.136 69.4035H242.179C242.45 68.6332 243.101 68.3076 243.611 68.3076C243.763 68.3076 243.839 68.3076 243.958 68.3291V69.8799V69.8811Z" fill="#D9D9D9"></path><path d="M46.0809 82.5106V77.713H42.4284L40.5476 75.6337L38.6578 77.713H26.6151V68.0216H22.7283L27.5494 57.1107H32.1993L33.859 60.8486V57.1107H39.6145L40.6136 59.9276L41.6194 57.1107H46.0809V52.2344H15.8047V82.5106H46.0809ZM43.0436 76.4996H46.0809L42.0633 72.2391L46.0809 68.0271H43.0921L40.6106 70.7386L38.1534 68.0271H35.1155L39.1095 72.2633L35.1155 76.4996H38.0692L40.5628 73.7638L43.0442 76.4996H43.0436ZM43.7545 72.2427L46.0809 74.7181V69.7879L43.7545 72.2427ZM30.2131 74.5389V73.2194H34.9944V71.3072H30.2131V69.9878H35.1155V68.0271H27.9013V76.5002H35.1155V74.5395H30.2131V74.5389ZM43.7933 66.7972H46.0809V58.3241H42.5223L40.6215 63.6013L38.7335 58.3241H35.1143V66.7972H37.4019V60.8661L39.5806 66.7972H41.614L43.7926 60.854V66.7972H43.7933ZM32.5123 66.7972H35.1149L31.3745 58.3241H28.3966L24.6562 66.7972H27.1982L27.9007 65.1024H31.7984L32.5123 66.7972ZM30.9991 63.2022H28.6993L29.8492 60.4302L30.9991 63.2022Z" fill="#D9D9D9"></path><path d="M95.5258 82.6614C87.1086 82.7015 80.1807 75.8819 80.1807 67.5805C80.1807 58.509 87.1086 52.2343 95.5258 52.2354H99.4707C107.788 52.2343 115.38 58.5058 115.38 67.5805C115.38 75.8786 107.788 82.6614 99.4707 82.6614H95.5258ZM95.5594 53.494C87.8679 53.4972 81.6354 59.7308 81.6343 67.4224C81.6354 75.1139 87.8679 81.3454 95.5594 81.3475C103.252 81.3464 109.486 75.1139 109.488 67.4224C109.486 59.7308 103.252 53.4972 95.5594 53.494ZM92.3977 75.6577V59.1838C89.0875 60.4587 86.7403 63.6616 86.7316 67.4224C86.7403 71.182 89.0875 74.385 92.3977 75.6588V75.6577ZM104.388 67.4224C104.382 63.6606 102.03 60.4533 98.7179 59.1828V75.6609C102.03 74.3893 104.382 71.1842 104.388 67.4224Z" fill="#D9D9D9"></path><path d="M54.7301 40.9228V41.5882H7.15318V40.9228H54.7301ZM61.2179 34.4351V7.15318C61.2179 3.57008 58.3132 0.665412 54.7301 0.665412H7.15318C3.57008 0.665412 0.665412 3.57008 0.665412 7.15318V34.4351C0.665412 38.0182 3.57008 40.9228 7.15318 40.9228V41.5882L6.96863 41.586C3.16466 41.4896 0.0986068 38.4236 0.00227436 34.6196L0 34.4351V7.15318C0 3.26429 3.10333 0.10016 6.96863 0.00227436L7.15318 0H54.7301L54.9147 0.00227436C58.78 0.10016 61.8833 3.26429 61.8833 7.15318V34.4351L61.881 34.6196C61.7847 38.4236 58.7186 41.4896 54.9147 41.586L54.7301 41.5882V40.9228C58.3132 40.9228 61.2179 38.0182 61.2179 34.4351Z" fill="#646464"></path><path d="M121.604 40.9228V41.5882H74.0272V40.9228H121.604ZM128.092 34.4351V7.15318C128.092 3.57008 125.187 0.665412 121.604 0.665412H74.0272C70.4441 0.665412 67.5394 3.57008 67.5394 7.15318V34.4351C67.5394 38.0182 70.4441 40.9228 74.0272 40.9228V41.5882L73.8427 41.586C70.0387 41.4896 66.9726 38.4236 66.8763 34.6196L66.874 34.4351V7.15318C66.874 3.26429 69.9774 0.10016 73.8427 0.00227436L74.0272 0H121.604L121.789 0.00227436C125.654 0.10016 128.757 3.26429 128.757 7.15318V34.4351L128.755 34.6196C128.659 38.4236 125.593 41.4896 121.789 41.586L121.604 41.5882V40.9228C125.187 40.9228 128.092 38.0182 128.092 34.4351Z" fill="#646464"></path><path d="M121.604 87.5029V88.1683H74.0272V87.5029H121.604ZM128.092 81.0151V53.7333C128.092 50.1502 125.187 47.2455 121.604 47.2455H74.0272C70.4441 47.2455 67.5394 50.1502 67.5394 53.7333V81.0151C67.5394 84.5982 70.4441 87.5029 74.0272 87.5029V88.1683L73.8427 88.166C70.0387 88.0697 66.9726 85.0037 66.8763 81.1997L66.874 81.0151V53.7333C66.874 49.8444 69.9774 46.6802 73.8427 46.5824L74.0272 46.5801H121.604L121.789 46.5824C125.654 46.6802 128.757 49.8444 128.757 53.7333V81.0151L128.755 81.1997C128.659 85.0037 125.593 88.0697 121.789 88.166L121.604 88.1683V87.5029C125.187 87.5029 128.092 84.5982 128.092 81.0151Z" fill="#646464"></path><path d="M54.7301 87.5029V88.1683H7.15318V87.5029H54.7301ZM61.2179 81.0151V53.7333C61.2179 50.1502 58.3132 47.2455 54.7301 47.2455H7.15318C3.57008 47.2455 0.665412 50.1502 0.665412 53.7333V81.0151C0.665412 84.5982 3.57008 87.5029 7.15318 87.5029V88.1683L6.96863 88.166C3.16466 88.0697 0.0986068 85.0037 0.00227436 81.1997L0 81.0151V53.7333C0 49.8444 3.10333 46.6802 6.96863 46.5824L7.15318 46.5801H54.7301L54.9147 46.5824C58.78 46.6802 61.8833 49.8444 61.8833 53.7333V81.0151L61.881 81.1997C61.7847 85.0037 58.7186 88.0697 54.9147 88.166L54.7301 88.1683V87.5029C58.3132 87.5029 61.2179 84.5982 61.2179 81.0151Z" fill="#646464"></path><path d="M188.478 40.9228V41.5882H140.901V40.9228H188.478ZM194.966 34.4351V7.15318C194.966 3.57008 192.061 0.665412 188.478 0.665412H140.901C137.318 0.665412 134.413 3.57008 134.413 7.15318V34.4351C134.413 38.0182 137.318 40.9228 140.901 40.9228V41.5882L140.717 41.586C136.913 41.4896 133.847 38.4236 133.75 34.6196L133.748 34.4351V7.15318C133.748 3.26429 136.851 0.10016 140.717 0.00227436L140.901 0H188.478L188.663 0.00227436C192.528 0.10016 195.631 3.26429 195.631 7.15318V34.4351L195.629 34.6196C195.533 38.4236 192.467 41.4896 188.663 41.586L188.478 41.5882V40.9228C192.061 40.9228 194.966 38.0182 194.966 34.4351Z" fill="#646464"></path><path d="M188.478 87.5029V88.1683H140.901V87.5029H188.478ZM194.966 81.0151V53.7333C194.966 50.1502 192.061 47.2455 188.478 47.2455H140.901C137.318 47.2455 134.413 50.1502 134.413 53.7333V81.0151C134.413 84.5982 137.318 87.5029 140.901 87.5029V88.1683L140.717 88.166C136.913 88.0697 133.847 85.0037 133.75 81.1997L133.748 81.0151V53.7333C133.748 49.8444 136.851 46.6802 140.717 46.5824L140.901 46.5801H188.478L188.663 46.5824C192.528 46.6802 195.631 49.8444 195.631 53.7333V81.0151L195.629 81.1997C195.533 85.0037 192.467 88.0697 188.663 88.166L188.478 88.1683V87.5029C192.061 87.5029 194.966 84.5982 194.966 81.0151Z" fill="#646464"></path><path d="M255.351 40.9228V41.5882H207.774V40.9228H255.351ZM261.839 34.4351V7.15318C261.839 3.57008 258.934 0.665412 255.351 0.665412H207.774C204.191 0.665412 201.287 3.57008 201.287 7.15318V34.4351C201.287 38.0182 204.191 40.9228 207.774 40.9228V41.5882L207.59 41.586C203.786 41.4896 200.72 38.4236 200.623 34.6196L200.621 34.4351V7.15318C200.621 3.26429 203.724 0.10016 207.59 0.00227436L207.774 0H255.351L255.536 0.00227436C259.401 0.10016 262.504 3.26429 262.504 7.15318V34.4351L262.502 34.6196C262.406 38.4236 259.34 41.4896 255.536 41.586L255.351 41.5882V40.9228C258.934 40.9228 261.839 38.0182 261.839 34.4351Z" fill="#646464"></path><path d="M255.351 87.5029V88.1683H207.774V87.5029H255.351ZM261.839 81.0151V53.7333C261.839 50.1502 258.934 47.2455 255.351 47.2455H207.774C204.191 47.2455 201.287 50.1502 201.287 53.7333V81.0151C201.287 84.5982 204.191 87.5029 207.774 87.5029V88.1683L207.59 88.166C203.786 88.0697 200.72 85.0037 200.623 81.1997L200.621 81.0151V53.7333C200.621 49.8444 203.724 46.6802 207.59 46.5824L207.774 46.5801H255.351L255.536 46.5824C259.401 46.6802 262.504 49.8444 262.504 53.7333V81.0151L262.502 81.1997C262.406 85.0037 259.34 88.0697 255.536 88.166L255.351 88.1683V87.5029C258.934 87.5029 261.839 84.5982 261.839 81.0151Z" fill="#646464"></path><path d="M239.845 23.7644V16.3973C239.845 15.8686 239.416 15.44 238.888 15.4399H237.625C237.409 15.4399 237.234 15.265 237.234 15.0491C237.234 14.8332 237.409 14.6582 237.625 14.6582H238.888C239.848 14.6582 240.627 15.4368 240.627 16.3973V23.7644C240.627 23.9803 240.452 24.1554 240.236 24.1554C240.02 24.1554 239.845 23.9803 239.845 23.7644ZM236.421 20.4357V18.3363C236.421 16.7422 235.131 15.4498 233.536 15.4464V15.4463L230.626 15.4425C229.027 15.4427 227.731 16.7376 227.731 18.3363V28.1984C227.731 28.4143 227.556 28.5893 227.34 28.5893C227.124 28.5893 226.949 28.4143 226.949 28.1984V18.3363C226.949 16.3053 228.595 14.6608 230.626 14.6608H230.627L233.538 14.6645H233.538L233.633 14.666C235.614 14.7203 237.203 16.3426 237.203 18.3363V20.4357C237.203 22.4665 235.557 24.1127 233.527 24.1127H229.412C229.196 24.1127 229.021 23.9377 229.021 23.7218C229.021 23.5059 229.196 23.3308 229.412 23.3308H233.527C235.125 23.3308 236.421 22.0348 236.421 20.4357Z" fill="#D9D9D9"></path><path d="M239.966 13.91L239.394 13.3374C239.252 13.1952 239.252 12.9651 239.394 12.8229L239.966 12.2502C240.109 12.108 240.34 12.108 240.482 12.2502L241.055 12.8229C241.197 12.9651 241.197 13.1952 241.055 13.3374L240.482 13.91C240.34 14.0522 240.11 14.0522 239.968 13.91H239.966Z" fill="#D9D9D9"></path><path d="M248.335 19.7354C248.87 19.2519 249.696 19.2673 250.211 19.7838L253.13 22.7026L253.166 22.738C253.544 23.0975 254.047 23.2991 254.571 23.2991H255.59L255.63 23.3011C255.827 23.3211 255.981 23.4876 255.981 23.69C255.981 23.8924 255.827 24.0589 255.63 24.0789L255.59 24.081H254.571C253.846 24.081 253.15 23.8022 252.627 23.3043L252.577 23.2556L249.657 20.3361C249.439 20.1167 249.087 20.1093 248.859 20.316L248.837 20.3366L245.907 23.2658C245.379 23.7943 244.66 24.0914 243.913 24.0914H242.66C242.444 24.0914 242.27 23.9163 242.27 23.7004C242.27 23.4845 242.444 23.3095 242.66 23.3095H243.913C244.453 23.3095 244.973 23.0945 245.355 22.713L248.284 19.7838L248.335 19.7354ZM243.913 14.6523C244.66 14.6524 245.379 14.9493 245.907 15.4778L248.837 18.407L248.859 18.4276C249.087 18.6343 249.439 18.6269 249.657 18.4075L252.577 15.4882L252.627 15.4393C253.15 14.9414 253.846 14.6626 254.571 14.6626H255.59L255.63 14.6647C255.827 14.6847 255.981 14.8512 255.981 15.0536C255.981 15.256 255.827 15.4225 255.63 15.4425L255.59 15.4445H254.571C254.047 15.4445 253.544 15.6462 253.166 16.0057L253.13 16.041L250.211 18.9598C249.696 19.4763 248.87 19.4917 248.335 19.0082L248.284 18.9598L245.355 16.0306C244.973 15.6491 244.453 15.4341 243.913 15.4341H242.66C242.444 15.4341 242.27 15.2591 242.27 15.0432C242.27 14.8273 242.444 14.6523 242.66 14.6523H243.913Z" fill="#D9D9D9"></path><path d="M219.872 25.5722C219.244 25.5722 218.652 25.3279 218.207 24.8832L215.804 22.48C215.636 22.3107 215.341 22.312 215.173 22.48L212.761 24.8922C212.316 25.3369 211.726 25.5812 211.096 25.5812H210.623L213.667 28.6255C214.617 29.5757 216.16 29.5757 217.11 28.6255L220.162 25.5735H219.872V25.5722Z" fill="#D9D9D9"></path><path d="M211.098 17.071C211.726 17.071 212.318 17.3154 212.763 17.76L215.175 20.1722C215.348 20.3454 215.633 20.3467 215.807 20.1722L218.21 17.7691C218.655 17.3244 219.246 17.0801 219.875 17.0801H220.165L217.113 14.028C216.163 13.0779 214.62 13.0779 213.67 14.028L210.626 17.0723H211.099L211.098 17.071Z" fill="#D9D9D9"></path><path d="M222.688 19.6054L220.843 17.7607C220.803 17.7775 220.759 17.7865 220.713 17.7865H219.874C219.441 17.7865 219.015 17.9623 218.709 18.2687L216.306 20.6718C216.081 20.8968 215.786 21.0092 215.49 21.0092C215.194 21.0092 214.899 20.8968 214.675 20.6718L212.262 18.2597C211.956 17.9533 211.532 17.7775 211.098 17.7775H210.066C210.022 17.7775 209.981 17.7671 209.942 17.7529L208.09 19.6054C207.139 20.5555 207.139 22.0977 208.09 23.0478L209.942 24.9003C209.981 24.886 210.022 24.8757 210.066 24.8757H211.098C211.531 24.8757 211.956 24.6999 212.262 24.3935L214.675 21.9813C215.11 21.5457 215.87 21.5457 216.306 21.9813L218.709 24.3845C219.015 24.6908 219.439 24.8666 219.874 24.8666H220.713C220.759 24.8666 220.803 24.877 220.843 24.8925L222.688 23.0478C223.638 22.0977 223.638 20.5555 222.688 19.6054Z" fill="#D9D9D9"></path><path fill-rule="evenodd" clip-rule="evenodd" d="M156.604 66.3988C156.526 66.7842 156.47 67.2062 156.392 67.6455C156.314 68.0794 156.158 68.5196 156.204 68.9388C156.308 69.9033 157.638 69.9115 158.179 69.3389C158.628 68.8639 158.999 67.6912 158.861 66.7513C158.702 65.669 157.136 65.7476 156.604 66.3988Z" fill="#D9D9D9"></path><path fill-rule="evenodd" clip-rule="evenodd" d="M162.743 65.8826C161.969 65.9118 161.477 66.5128 161.402 67.059H163.778C163.994 66.1502 163.472 65.8552 162.743 65.8826Z" fill="#D9D9D9"></path><path fill-rule="evenodd" clip-rule="evenodd" d="M172.905 68.7515C172.755 69.9708 174.219 69.8265 174.74 69.3159C175.137 68.9268 175.239 68.2236 175.328 67.6692C174.133 67.523 173.029 67.7386 172.905 68.7515Z" fill="#D9D9D9"></path><path fill-rule="evenodd" clip-rule="evenodd" d="M156.629 65.792C156.621 65.7986 156.612 65.8052 156.604 65.8119C156.619 65.8109 156.631 65.8081 156.629 65.792Z" fill="#D9D9D9"></path><path fill-rule="evenodd" clip-rule="evenodd" d="M155.334 57.2255H150.511C148.38 57.326 146.639 58.1845 146.136 59.9546C145.874 60.878 145.73 61.8909 145.524 62.8481C144.482 67.7126 143.558 72.7104 142.561 77.4781H180.103C183.005 77.4781 184.998 76.8652 185.536 74.5608C185.787 73.4904 186.026 72.2784 186.265 71.1029C187.199 66.5188 188.132 61.9357 189.088 57.2246H155.334V57.2255ZM154.251 63.5294C154.331 63.4217 154.448 63.3523 154.651 63.3175C154.871 63.2801 155.028 63.3048 155.122 63.3879C155.419 63.6509 155.159 64.2839 154.957 64.4227C154.83 64.5113 154.398 64.6127 154.205 64.4227C154.007 64.2282 154.124 63.703 154.252 63.5285L154.251 63.5294ZM150.888 70.2572C151.069 69.1054 151.304 68.0085 151.499 66.8696C150.555 66.78 149.377 66.8221 148.394 66.8458C148.156 67.9409 147.987 69.1045 147.806 70.2562H146.653C147.104 68.0103 147.473 65.6804 147.876 63.3879H149.005C148.815 64.2884 148.678 65.2411 148.487 66.1398C149.498 66.2147 150.568 66.1745 151.615 66.1635C151.779 65.2447 151.942 64.3259 152.086 63.3879H153.262C152.8 65.6228 152.409 67.93 152.039 70.2562H150.887L150.888 70.2572ZM153.051 70.2572C153.374 68.6899 153.675 67.1015 153.898 65.4347C153.896 65.4009 153.894 65.368 153.922 65.3644H154.933C154.584 66.9362 154.305 68.5793 154.062 70.2572H153.051ZM158.414 70.1156C157.778 70.4599 156.27 70.6298 156.039 69.7393C155.835 70.586 155.738 71.5404 155.592 72.4446H154.581C155.035 70.1229 155.465 67.7774 155.828 65.3644H156.698C156.691 65.5215 156.635 65.6311 156.628 65.7882C156.628 65.79 156.628 65.7909 156.628 65.7918C157.08 65.4265 158.124 65.0429 158.98 65.3644C160.742 66.0256 159.729 69.4059 158.415 70.1156H158.414ZM164.601 67.6222C163.509 67.5938 162.376 67.5874 161.285 67.6222C161.116 68.3446 161.119 69.1758 161.638 69.5036C162.325 69.9384 163.486 69.5895 164.155 69.3392C164.11 69.6087 164.042 69.8525 164.013 70.1393C162.39 70.5348 160.362 70.5933 160.179 68.9629C160.051 67.8203 160.488 66.5663 161.026 65.9991C161.465 65.537 162.082 65.326 162.813 65.2703C163.647 65.2064 164.466 65.379 164.695 66.0466C164.868 66.5526 164.67 67.1107 164.601 67.6231L164.601 67.6222ZM166.413 67.1052C166.098 68.0176 166.037 69.3036 165.895 70.2572H164.883C165.189 68.6506 165.511 67.0595 165.729 65.3644H166.624C166.563 65.6338 166.533 65.9325 166.459 66.1873C166.786 65.6137 167.491 65.0018 168.388 65.3644C168.361 65.6192 168.284 65.8247 168.27 66.0932C167.321 65.7544 166.664 66.3754 166.412 67.1043L166.413 67.1052ZM171.234 70.1156C169.913 70.5723 168.281 70.5074 167.918 69.3155C167.607 68.2971 168.047 66.6796 168.718 65.9754C169.403 65.2566 170.696 65.1178 172.058 65.3406C172.022 65.611 171.966 65.8603 171.94 66.1407C171.11 65.8503 170.069 65.7644 169.541 66.2823C169.159 66.6567 168.911 67.4842 168.859 68.1638C168.836 68.4661 168.859 68.8634 168.953 69.1045C169.273 69.9329 170.653 69.7384 171.376 69.363C171.324 69.6096 171.293 69.8763 171.235 70.1156H171.234ZM176.221 67.9985C176.093 68.7483 175.972 69.4233 175.963 70.2562H175.092C175.078 69.9676 175.12 69.7347 175.162 69.5036C174.746 70.1713 173.541 70.6572 172.551 70.2325C172.037 70.0124 171.768 69.2233 172.011 68.4213C172.37 67.2239 173.74 66.9444 175.421 67.1043C175.496 66.8979 175.598 66.6166 175.539 66.3517C175.36 65.5552 173.501 66.0137 172.905 66.1635C172.967 65.8959 173.043 65.6429 173.093 65.3634C174.29 65.3287 176.429 64.8721 176.503 66.1635C176.536 66.7271 176.331 67.3591 176.221 67.9985ZM178.056 68.4926C177.955 69.1283 177.828 69.6087 177.82 70.2572H176.785C177.124 68.6752 177.415 67.0449 177.656 65.3644H178.55C178.473 65.6009 178.468 65.9096 178.386 66.1407C178.676 65.6913 179.42 64.9415 180.315 65.3881C180.248 65.6037 180.226 65.864 180.174 66.0941C178.591 65.6466 178.273 67.1353 178.057 68.4935L178.056 68.4926ZM183.96 70.2572H183.043C183.047 69.9877 183.101 69.7667 183.137 69.5283C183.118 69.4662 183.015 69.6817 182.949 69.764C182.862 69.8736 182.728 70.0306 182.596 70.1165C181.918 70.5631 180.572 70.4362 180.103 69.9046C179.831 69.5959 179.756 69.1639 179.75 68.7282C179.723 66.475 181.244 64.6501 183.726 65.4347C183.876 64.7378 183.992 64.0071 184.079 63.2472H185.091C184.685 65.5543 184.138 67.7208 183.962 70.2572H183.96Z" fill="#D9D9D9"></path><path fill-rule="evenodd" clip-rule="evenodd" d="M182.385 65.9062C181.296 66.0277 180.759 67.3876 180.786 68.6115C180.802 69.3102 181.141 69.7313 181.821 69.7167C183.414 69.6829 183.291 67.4689 183.632 66.0943C183.26 65.9674 182.893 65.8496 182.385 65.9062Z" fill="#D9D9D9"></path></svg>