<svg xmlns="http://www.w3.org/2000/svg" width="180" height="180" viewBox="0 0 180 180" fill="none"><circle cx="90" cy="90" r="87.5" fill="white" stroke="#D4DD27" stroke-width="5"></circle><circle cx="90" cy="90" r="63.5" fill="#26A9E0" stroke="#D4DD27"></circle><path d="M73.7159 59.058H95.5933C96.7103 59.0559 97.7808 58.6108 98.5699 57.8203C99.3589 57.0297 99.8021 55.9584 99.8021 54.8415C99.8021 53.7245 99.3589 52.6532 98.5699 51.8627C97.7808 51.0722 96.7103 50.627 95.5933 50.625H73.7161C72.6062 50.6376 71.546 51.0874 70.7655 51.8768C69.9851 52.6661 69.5474 53.7314 69.5474 54.8414C69.5473 55.9514 69.985 57.0167 70.7654 57.8061C71.5458 58.5954 72.606 59.0453 73.7159 59.058Z" fill="white"></path><path d="M119.628 102.898L113.353 99.2769L107.093 102.898V110.137L113.353 113.758L119.628 110.137V102.898Z" fill="white"></path><path d="M99.3979 116.214V123.455L105.659 127.076L111.933 123.455V116.214L105.659 112.594L99.3979 116.214Z" fill="white"></path><path d="M121.049 112.594L114.774 116.214V123.455L121.049 127.076L127.309 123.455V116.214L121.049 112.594Z" fill="white"></path><path d="M78.1593 90.1635C80.2556 90.22 82.3289 89.7152 84.1646 88.7015C87.7796 86.4279 95.0123 86.4067 98.6596 88.7012C99.9835 89.4279 101.434 89.8952 102.933 90.0782L97.2541 77.3153V61.6987C96.7104 61.8311 96.1528 61.8979 95.5932 61.8975H73.7158C73.1562 61.8962 72.5987 61.8294 72.0547 61.6987V66.4121H79.6074C79.984 66.4121 80.3451 66.5617 80.6113 66.8279C80.8775 67.0942 81.0271 67.4553 81.0271 67.8318C81.0271 68.2083 80.8775 68.5694 80.6113 68.8357C80.3451 69.1019 79.984 69.2515 79.6074 69.2515H72.0547V73.4111H79.6074C79.9795 73.4177 80.3342 73.5702 80.595 73.8357C80.8559 74.1012 81.0021 74.4586 81.0021 74.8308C81.0021 75.203 80.8559 75.5603 80.5951 75.8259C80.3343 76.0914 79.9796 76.2439 79.6074 76.2505H72.0547V77.3153L67.6821 87.1679C69.2451 87.4368 70.7549 87.9545 72.1541 88.7012C73.9897 89.7152 76.063 90.22 78.1593 90.1635Z" fill="white"></path><path d="M96.5588 124.264V115.391C96.5602 115.143 96.6265 114.9 96.751 114.686C96.8756 114.472 97.054 114.294 97.2686 114.17L104.253 110.124V102.074C104.253 101.881 104.294 101.691 104.372 101.515C104.45 101.339 104.565 101.181 104.708 101.052C104.856 100.848 106.959 99.7542 107.164 99.5756L104.225 92.9881C98.7628 93.1662 97.1324 89.7618 91.4195 89.7937C85.0328 89.8532 85.0017 93.0546 78.1596 93.0022C72.2194 93.0875 71.2796 90.4543 66.4757 89.8648L53.301 119.508C52.8258 120.575 52.6248 121.745 52.7164 122.91C52.8079 124.075 53.189 125.198 53.8251 126.179C54.4612 127.159 55.3321 127.965 56.3588 128.523C57.3854 129.081 58.5352 129.374 59.7037 129.375H103.97L99.0576 126.535C98.2835 125.99 96.4743 125.456 96.5588 124.264ZM73.6026 116.626C72.4362 116.613 71.322 116.141 70.5018 115.312C69.6816 114.482 69.2216 113.363 69.2216 112.196C69.2216 111.03 69.6817 109.911 70.5019 109.081C71.3222 108.252 72.4364 107.78 73.6027 107.767C74.769 107.78 75.8832 108.252 76.7035 109.082C77.5237 109.911 77.9837 111.03 77.9837 112.197C77.9836 113.363 77.5236 114.482 76.7033 115.312C75.8831 116.141 74.7689 116.613 73.6026 116.626ZM89.8579 112.111C88.2962 112.096 86.8037 111.464 85.7049 110.355C84.606 109.245 83.9897 107.746 83.9897 106.184C83.9897 104.622 84.6061 103.124 85.705 102.014C86.8039 100.904 88.2964 100.273 89.8581 100.257C91.4199 100.273 92.9123 100.904 94.0112 102.014C95.11 103.124 95.7264 104.622 95.7264 106.184C95.7263 107.746 95.1099 109.245 94.011 110.355C92.9122 111.465 91.4197 112.096 89.8579 112.111Z" fill="white"></path><path d="M72.0122 112.197C72.0182 112.615 72.1883 113.013 72.4858 113.307C72.7834 113.6 73.1844 113.764 73.6022 113.764C74.02 113.764 74.4211 113.6 74.7186 113.307C75.0162 113.013 75.1863 112.615 75.1923 112.197C75.1864 111.779 75.0162 111.381 74.7187 111.087C74.4212 110.794 74.0201 110.629 73.6023 110.629C73.1845 110.629 72.7834 110.794 72.4859 111.087C72.1883 111.38 72.0182 111.779 72.0122 112.197Z" fill="white"></path><path d="M86.7769 106.191C86.7855 107.003 87.1139 107.778 87.6907 108.349C88.2675 108.919 89.0461 109.24 89.8575 109.24C90.6689 109.24 91.4476 108.919 92.0244 108.349C92.6012 107.778 92.9296 107.003 92.9383 106.192C92.9296 105.38 92.6013 104.605 92.0245 104.034C91.4477 103.464 90.669 103.144 89.8576 103.144C89.0462 103.144 88.2676 103.464 87.6908 104.034C87.1139 104.605 86.7855 105.38 86.7769 106.191Z" fill="white"></path></svg>