<svg xmlns="http://www.w3.org/2000/svg" width="180" height="180" viewBox="0 0 180 180" fill="none"><circle cx="90" cy="90" r="87.5" fill="white" stroke="#D4DD27" stroke-width="5"></circle><circle cx="90" cy="90" r="63.5" fill="#26A9E0" stroke="#D4DD27"></circle><path d="M57.6276 94.7049C60.2295 94.7049 62.3388 92.5985 62.3388 90C62.3388 87.4015 60.2295 85.2951 57.6276 85.2951C55.0257 85.2951 52.9164 87.4015 52.9164 90C52.9164 92.5985 55.0257 94.7049 57.6276 94.7049Z" fill="white"></path><path d="M95.99 65.1311C100.45 65.1311 104.066 61.5201 104.066 57.0656C104.066 52.6111 100.45 49 95.99 49C91.5296 49 87.9137 52.6111 87.9137 57.0656C87.9137 61.5201 91.5296 65.1311 95.99 65.1311Z" fill="white"></path><path d="M118.873 96.7213C121.475 96.7213 123.584 94.6148 123.584 92.0164C123.584 89.4179 121.475 87.3115 118.873 87.3115C116.271 87.3115 114.162 89.4179 114.162 92.0164C114.162 94.6148 116.271 96.7213 118.873 96.7213Z" fill="white"></path><path d="M89.9328 117.557C88.6017 117.557 87.3005 117.952 86.1937 118.69C85.0869 119.429 84.2243 120.478 83.7149 121.707C83.2055 122.935 83.0722 124.286 83.3319 125.59C83.5916 126.894 84.2326 128.091 85.1738 129.031C86.115 129.971 87.3143 130.612 88.6198 130.871C89.9253 131.13 91.2786 130.997 92.5084 130.488C93.7382 129.98 94.7893 129.118 95.5288 128.013C96.2683 126.908 96.6631 125.608 96.6631 124.279C96.6631 122.496 95.954 120.786 94.6918 119.526C93.4296 118.266 91.7178 117.557 89.9328 117.557ZM91.9519 125.623C91.4194 125.623 90.8989 125.465 90.4562 125.17C90.0135 124.874 89.6685 124.455 89.4647 123.963C89.2609 123.472 89.2076 122.931 89.3115 122.41C89.4154 121.888 89.6718 121.409 90.0483 121.033C90.4248 120.657 90.9045 120.401 91.4267 120.298C91.9489 120.194 92.4902 120.247 92.9821 120.451C93.474 120.654 93.8945 120.999 94.1903 121.441C94.4861 121.883 94.644 122.403 94.644 122.934C94.644 123.647 94.3603 124.331 93.8555 124.835C93.3506 125.34 92.6659 125.623 91.9519 125.623Z" fill="white"></path><path d="M130.907 120.36C130.641 118.406 129.772 116.584 128.419 115.147C127.067 113.711 125.299 112.732 123.362 112.348C121.721 112.032 120.024 112.159 118.449 112.718C113.987 107.428 110.48 99.9475 108.253 94.4159C108.962 91.5032 108.962 88.4632 108.253 85.5505C113.67 79.6895 119.223 79.918 119.465 79.918H119.546C121.095 79.9197 122.628 79.6074 124.052 78.9998C125.477 78.3923 126.763 77.5022 127.833 76.3836C128.902 75.2649 129.734 73.941 130.276 72.492C130.818 71.0431 131.06 69.4992 130.987 67.9541C130.84 65.114 129.644 62.4294 127.63 60.4184C125.616 58.4075 122.928 57.213 120.084 57.0656C118.537 56.9928 116.991 57.2345 115.54 57.776C114.089 58.3176 112.764 59.1477 111.644 60.216C110.524 61.2844 109.632 62.5688 109.024 63.9913C108.416 65.4139 108.103 66.9449 108.104 68.4918V68.7539C105.2 70.5552 102.17 72.1477 99.0388 73.5193C96.8585 72.3207 94.4625 71.5641 91.9885 71.293C89.5146 71.022 87.0113 71.2418 84.6226 71.9398C80.5406 70.459 76.9215 67.9297 74.1302 64.6069C74.511 62.9637 74.5568 61.2607 74.2648 59.5995C73.7206 56.6616 72.1766 54.0017 69.8942 52.0701C67.6117 50.1386 64.731 49.054 61.7398 49C58.4768 49.0122 55.3419 50.2696 52.977 52.5148C50.6121 54.76 49.1961 57.8231 49.0189 61.0769C48.8417 64.3308 49.9167 67.5292 52.0239 70.0173C54.1311 72.5054 57.1109 74.0949 60.3534 74.4603C64.3483 78.9 67.9512 83.6765 71.1218 88.7364C71.0881 89.1666 71.0881 89.59 71.0881 90C71.0895 92.8627 71.7431 95.6875 72.9995 98.2605C71.5579 100.107 69.9834 101.845 68.2883 103.463L67.723 103.443C65.5932 103.443 63.5112 104.073 61.7404 105.255C59.9695 106.437 58.5893 108.116 57.7743 110.081C56.9592 112.046 56.746 114.209 57.1615 116.295C57.577 118.381 58.6026 120.297 60.1086 121.801C61.6146 123.305 63.5333 124.329 65.6222 124.744C67.711 125.159 69.8762 124.946 71.8439 124.132C73.8115 123.318 75.4933 121.94 76.6766 120.171C77.8598 118.403 78.4914 116.324 78.4914 114.197V114.009C80.4515 111.877 82.5906 109.916 84.8851 108.148C87.4042 108.839 90.0397 109.002 92.6249 108.625C101.219 112.268 107.903 117.887 112.143 122.121C112.144 123.696 112.574 125.242 113.388 126.591C114.201 127.941 115.366 129.045 116.76 129.783C118.241 130.567 119.889 130.985 121.565 131C122.905 130.998 124.228 130.711 125.448 130.157C126.668 129.604 127.755 128.797 128.638 127.791C129.521 126.785 130.178 125.602 130.567 124.322C130.956 123.042 131.067 121.693 130.893 120.367L130.907 120.36ZM124.93 62.4426C125.596 62.4426 126.246 62.6397 126.8 63.009C127.353 63.3783 127.784 63.9031 128.039 64.5172C128.294 65.1313 128.36 65.807 128.231 66.4589C128.101 67.1108 127.78 67.7096 127.31 68.1796C126.839 68.6496 126.239 68.9697 125.587 69.0994C124.934 69.229 124.257 69.1625 123.642 68.9081C123.027 68.6538 122.502 68.223 122.132 67.6704C121.762 67.1177 121.565 66.468 121.565 65.8033C121.565 64.912 121.92 64.0572 122.551 63.4269C123.182 62.7967 124.038 62.4426 124.93 62.4426ZM66.3769 60.0633C65.7114 60.0633 65.0608 59.8662 64.5074 59.4969C63.954 59.1276 63.5227 58.6028 63.268 57.9887C63.0133 57.3746 62.9466 56.6989 63.0765 56.047C63.2063 55.3951 63.5268 54.7963 63.9974 54.3263C64.4681 53.8563 65.0677 53.5362 65.7204 53.4065C66.3732 53.2769 67.0498 53.3434 67.6647 53.5978C68.2796 53.8521 68.8052 54.2829 69.1749 54.8355C69.5447 55.3882 69.7421 56.0379 69.7421 56.7026C69.7421 57.5939 69.3875 58.4487 68.7564 59.079C68.1254 59.7092 67.2694 60.0633 66.3769 60.0633Z" fill="white"></path></svg>